<svg width="400" height="400" xmlns="http://www.w3.org/2000/svg"><g fill-rule="evenodd"><path d="M183.6 78.043c0 .243.279.335.621.204.341-.131.538-.105.438.058-.1.162-1.73.264-3.621.225-2.74-.055-3.438.046-3.438.5 0 .532-2.22.823-4.5.591-.385-.039-.7.131-.7.377 0 .247.168.346.372.219a.43.43 0 0 1 .592.125c.122.197-.731.274-1.926.173-1.848-.156-2.262-.055-2.992.727-.465.5-.849.74-.852.533-.003-.206-.181-.105-.394.225-.258.4-.39.433-.394.1-.007-.593-1.85-.677-2.206-.1-.136.22-.886.4-1.666.4-1.098 0-1.367.136-1.189.6.155.404-.019.6-.534.6-.42 0-.875.18-1.012.401-.163.264-.534.248-1.084-.046-.68-.364-.795-.341-.617.123.168.439-.064.53-1.005.392-.753-.111-1.394.033-1.666.375-.556.696-2.406 1.768-2.045 1.185.148-.241-.028-.43-.401-.43-.426 0-.584.215-.438.595.125.328.1.576-.057.553-1.082-.161-2.493.118-2.286.452.252.408-.248.548-1.5.421-.385-.039-.7.131-.7.377 0 .247.208.321.462.164.275-.171.353-.111.193.149-.147.238-.705.354-1.239.258-.572-.104-1.105.054-1.294.383-.177.307-.682.635-1.122.727-.44.093-.759.372-.708.62.053.264-.271.382-.778.284-.529-.101-1.168.154-1.633.652-.419.451-.999.728-1.289.617-.289-.111-.629.069-.756.399s-.401.494-.609.365c-.209-.128-.75.164-1.203.651-.453.486-.824.747-.824.58 0-.167-.264-.066-.586.224-1.442 1.301-1.83 1.529-2.597 1.529-.46 0-.817.263-.817.6 0 .579-.447.767-1.5.63-.275-.036-.5.123-.5.352 0 .23-.27.418-.6.418-.55 0-.784.489-.637 1.33.031.182-.307.215-.753.073-.468-.148-.81-.077-.81.17 0 .235-.209.427-.464.427-.256 0-.976.572-1.6 1.272-.625.7-1.139 1.105-1.142.9-.003-.205-.177-.102-.386.228-.208.33-.525.6-.703.6-.178 0-.758.405-1.29.9-.531.495-1.142.9-1.357.9-.215 0-.271.12-.124.268.329.328-.89 1.734-1.496 1.726-.241-.003-.168-.181.162-.394.421-.272.447-.39.087-.394-.938-.011-3.036 2.453-2.425 2.848.375.243.248.318-.418.247-.531-.056-1.043.146-1.152.455-.108.305-.022.448.189.317.212-.131.386.03.386.358 0 .41-.129.467-.414.182-.622-.622-1.17-.496-.9.208.14.367.071.517-.171.368-.496-.307-5.267 4.551-4.958 5.049.119.194-.093.234-.473.088-.513-.197-.629-.106-.452.355.155.405.021.602-.388.569-.344-.027-.713.2-.82.506-.107.305-.021.448.19.317.212-.131.386.021.386.338 0 .424-.136.464-.515.149-.524-.434-2.952 1.584-2.952 2.454 0 .212-.18.386-.4.386-.22 0-.4.261-.4.58 0 .319-.315.764-.7.988-.385.224-.552.413-.372.42.181.007-.335.638-1.146 1.403-.924.872-1.387 1.618-1.241 2 .144.375.008.609-.354.609a.602.602 0 0 0-.587.613c0 .336-.301.728-.669.869-.369.141-.999.586-1.4.987-.773.773-.986 1.336-.359.948.205-.126.503-.019.662.238.171.276.117.362-.13.209-.231-.143-.523.01-.65.338-.126.329-.505.598-.841.598a.608.608 0 0 0-.613.6c0 .33-.199.6-.443.6-.243 0-.338.272-.211.604.136.353-.095.807-.557 1.096-.901.562-1.02 1.498-.289 2.265.407.428.342.477-.353.268-.872-.263-1.596.64-1.125 1.403.124.2-.05.364-.386.364-.381 0-.524.228-.379.605.164.428.049.534-.398.362-.491-.188-.611.008-.544.896.067.892-.076 1.123-.661 1.074-.638-.054-.716.149-.537 1.4.115.805.121 1.238.013.963-.354-.901-1.028-.523-.838.469.138.721-.018 1.023-.608 1.177-.653.171-.753.441-.566 1.531.125.728.135 1.098.022.823-.376-.911-1.037-.518-.842.5.15.787.027 1-.58 1-.58 0-.711.192-.527.77.158.499.004.905-.435 1.151-.405.227-.581.637-.435 1.017.134.35.06.75-.166.89-.225.139-.316.496-.203.792.137.357 0 .46-.407.304-.446-.172-.577-.019-.48.558.074.438-.112 1.093-.414 1.457-.465.56-.465.764 0 1.338.373.46.389.58.049.376-.35-.21-.5.02-.5.766 0 .782-.159 1.005-.598.837-.479-.184-.574.079-.476 1.316.08 1.009-.032 1.485-.322 1.374-.274-.105-.444.371-.444 1.239 0 .9-.262 1.602-.726 1.941-.562.411-.693.941-.58 2.351.107 1.337.013 1.77-.354 1.629-.36-.138-.5.381-.5 1.851 0 1.551-.145 2.043-.601 2.043-.482 0-.581.504-.5 2.549.079 2.004-.015 2.506-.438 2.343-.423-.163-.521.344-.454 2.35.12 3.62.068 3.958-.616 3.958-.536 0-.531.133.042 1.1.456.771.474.888.059.392-.525-.628-.595.769-.623 12.388-.023 9.793.09 13.173.45 13.402.369.235.364.307-.019.312-.275.003-.5.276-.5.606 0 .33.176.6.39.6.247 0 .256.354.022.967-.422 1.112-.386 2.633.063 2.633.543 0 1.552 2.336 1.124 2.601-.612.378-.515 3.929.101 3.692.361-.138.483.323.437 1.657-.035 1.03.143 1.979.4 2.143.339.216.329.296-.037.301-.275.003-.5.166-.5.362 0 .195.315.33.7.3.598-.048.683.249.582 2.044-.072 1.27.047 2.1.3 2.1.23 0 .418.816.418 1.813 0 1.242.189 1.885.6 2.042.33.127.6.556.6.954 0 .399.225.816.5.927.376.153.352.309-.1.634-.482.345-.497.496-.08.766.286.185.549.72.584 1.19.036.469.297.942.58 1.051.284.109.516.632.516 1.161 0 .53.274 1.191.609 1.469.336.28.508.824.384 1.215-.347 1.093.195 2.758.819 2.518.393-.151.499.107.392.951-.116.91.083 1.301.925 1.823.801.497.894.667.371.675-.385.006-.7.185-.7.398 0 .214.27.284.6.158.406-.156.6.019.6.541 0 1.046 1.374 3.807 1.721 3.459.154-.153.279.114.279.594 0 .982.725 2.426 1.55 3.084.302.242.55.92.55 1.508s.138 1.069.307 1.069c.168 0 .419.449.557.998.137.548.472.953.743.9.272-.054.44.216.375.602-.064.385.071.7.3.7a.41.41 0 0 0 .418-.4c0-.22.216-.4.48-.4.373 0 .373.107 0 .48-.672.672-.598 1.814.145 2.23.344.192.677.606.74.92.25 1.248.728 1.909 1.237 1.714.712-.273 1.599 1.307.895 1.593-.375.153-.354.301.084.606.319.222.722.317.895.21.173-.107.196.116.05.496-.202.527-.108.63.4.435.365-.14.641-.127.612.03-.119.647.967 2.868 1.301 2.662.199-.123.361.017.361.311 0 .568 1.415 1.964 1.701 1.679.093-.093.513.55.934 1.428.421.878.979 1.599 1.241 1.601.262.003.605.213.762.467.194.313.105.353-.276.123-.478-.288-.48-.237-.017.334.3.37.703.575.896.456.192-.119.237.076.1.434-.165.431-.062.608.305.524.305-.07.569-.039.586.07.144.875 1.135 2.001 1.68 1.91.368-.062.697.112.729.387.032.275.103.635.156.8.054.165.076.435.05.6-.026.165.131.3.348.3.615 0 1.988 1.304 1.761 1.671-.112.181.011.329.273.329.263 0 .829.405 1.259.9.43.495 1.064.901 1.409.902.345.001.679.356.743.789.131.893 1.299 1.894 1.829 1.566.193-.119.301.022.241.313-.061.292.109.487.376.435.294-.058.388.157.239.546-.197.513-.054.593.714.399.529-.134.736-.139.461-.013-.83.381-.562.963.444.963.534 0 1.262.424 1.677.976.403.537.878.886 1.056.776.178-.109.323.041.323.335 0 .71 1.312 1.809 1.919 1.607.264-.088.586.114.714.449.129.335.691.908 1.25 1.274.558.367.894.469.745.229-.166-.269-.041-.349.326-.208.338.13.494.493.36.841-.183.479-.044.553.636.337.478-.152.844-.128.813.054-.147.844.094 1.237.727 1.186.38-.031.695.154.7.411.015.688.608 1.164.623.5.009-.377.266-.265.764.333.42.503 1.202.9 1.775.9.745 0 .96.163.793.6-.146.38.005.6.412.6.354 0 .643.191.643.424 0 .233.169.319.376.191s.733.15 1.17.619c.436.468.97.741 1.187.607.58-.358 1.706.173 1.403.663-.149.241-.068.301.192.141.248-.154.765.089 1.15.538.385.449 1.11.817 1.611.817.501 0 .911.191.911.424 0 .233.175.315.389.183.214-.133.704.127 1.089.576.385.449 1.02.817 1.411.817s.711.16.711.356c0 .195.225.347.5.337 1.289-.048 1.926.142 1.7.507-.241.39.284.562 1.305.429.278-.037.598.174.711.468.113.294.781.578 1.486.632.705.054 1.429.362 1.609.684.204.364.939.587 1.932.587.883 0 1.516.143 1.408.317-.107.174.156.343.585.376.497.037.684-.115.514-.417-.185-.329-.101-.321.271.024.297.275.908.514 1.359.532.451.017.595.122.32.233-1.111.448-.419 1.011 1.069.869.924-.088 1.541.019 1.5.258-.038.225.728.443 1.703.486 1.118.049 1.899.306 2.118.696.234.419.869.598 1.963.555.889-.034 1.736.107 1.882.315.146.208 1.389.373 2.764.367 2.127-.009 2.499.094 2.5.696.001.619.334.691 2.647.574 1.806-.09 2.812.034 3.171.393.693.693 2.737.716 2.348.026-.226-.4-.175-.4.256 0 .297.275 1.007.5 1.579.5.572 0 1.282-.225 1.579-.5.388-.36.463-.365.267-.018-.209.371 2.453.488 11.568.506 6.512.012 11.752-.12 11.644-.294-.108-.175.285-.282.873-.238.588.043 1.069.117 1.069.163s.4.125.89.177c.489.052.793-.061.676-.251-.244-.395.263-.45 3.734-.407 1.942.025 2.5-.099 2.5-.553 0-.572 1.361-.775 4.048-.603.579.037 1.143-.182 1.261-.49.147-.382.794-.534 2.053-.481 1.964.081 2.195-.063 1.229-.767-.466-.339-.041-.412 1.8-.308 1.875.105 2.409.009 2.409-.431 0-.408.353-.515 1.257-.382.993.146 1.187.068.923-.369-.254-.421-.153-.41.418.046.682.544.727.535.489-.1-.212-.566-.04-.7.902-.7.64 0 1.275-.18 1.411-.4.136-.22.697-.4 1.247-.4.549 0 1.792-.443 2.762-.984 1.021-.57 1.864-.821 2.003-.597.141.228.479.147.825-.199.322-.322.848-.485 1.169-.362.376.144.724-.147.979-.817.217-.573.5-1.041.629-1.041.128 0 .122.18-.014.4-.136.22.123.4.576.4.453 0 .824-.253.824-.563 0-.371.28-.489.824-.347.591.155.882-.007 1.03-.576.154-.588.456-.744 1.177-.606.696.133.969.007.969-.449 0-.409.221-.549.622-.395.361.138.951-.114 1.403-.599.467-.501 1.061-.748 1.478-.614.543.175.575.137.143-.17-.448-.32-.382-.487.348-.878.497-.266.804-.323.684-.129-.121.195.128.355.551.355.837 0 1.091-.613.271-.654-.275-.014-.078-.195.437-.401.515-.207 1.131-.256 1.368-.109.278.172.334.014.158-.444-.197-.515-.115-.65.299-.491a.615.615 0 0 0 .792-.355c.122-.316.677-.575 1.233-.575.557 0 1.013-.177 1.013-.392 0-.216.449-.505.997-.643.549-.138.898-.411.777-.608-.122-.196.169-.357.645-.357.592 0 .796-.183.644-.58-.148-.387-.03-.505.357-.357.319.123.58.023.58-.22 0-.244.191-.443.424-.443.233 0 .295.208.138.462-.181.293-.109.353.196.164.372-.23.373-.427.005-.871-.378-.455-.361-.531.08-.368.307.112 1.163-.331 1.905-.985.741-.655 1.487-1.104 1.658-.999.316.196.973-.957.858-1.503-.035-.165.071-.279.236-.253.976.154 1.631-.142 1.808-.816.112-.429 1.033-1.148 2.08-1.625 1.323-.603 1.811-1.032 1.65-1.452-.126-.327-.062-.492.143-.366.204.126 1.469-.854 2.81-2.179 1.341-1.325 2.612-2.409 2.824-2.409.212 0 .385-.193.385-.429 0-.574 1.026-1.571 1.618-1.571.278 0 .389-.332.266-.801-.115-.44-.048-.7.15-.578.552.341 4.079-3.314 3.736-3.87-.191-.308-.122-.369.195-.173.311.193.569-.003.709-.538.12-.462.389-.84.596-.84.208 0 .248.225.089.5-.167.29-.135.36.077.167.2-.184.372-.724.382-1.2.01-.488.242-.819.53-.757.282.06.39-.086.241-.327-.153-.248.103-.534.593-.662.475-.125.794-.427.709-.674-.167-.486 1.119-1.904 1.438-1.585.107.107.321-.38.475-1.082.167-.759.585-1.357 1.032-1.473.412-.108 1.011-.72 1.33-1.359.377-.756.414-1.062.107-.878-.27.162-.238-.007.076-.393.302-.372.818-.677 1.147-.677.393 0 .528-.264.396-.77-.144-.549-.037-.707.37-.551.314.121.542.062.507-.13-.198-1.086.078-1.706.661-1.482.409.157.587.047.506-.313-.168-.753.88-3.192 1.269-2.951.395.244.873-.954.573-1.439-.124-.2.055-.364.398-.364.746 0 .831-.65.124-.935-.4-.161-.4-.208 0-.233.275-.018.5-.308.5-.645 0-.336.259-.711.575-.833a.612.612 0 0 0 .357-.787c-.134-.35.039-.567.452-.567.495 0 .601-.216.407-.828-.199-.627-.06-.881.573-1.047.46-.12.836-.478.836-.795 0-.318-.15-.485-.333-.371-.184.113-.334-.056-.334-.377 0-.32.342-.582.761-.582.586 0 .7-.189.497-.828-.199-.627-.06-.881.573-1.047.609-.159.836-.538.836-1.395 0-.648.16-1.079.355-.958.195.121.347-.004.337-.276-.046-1.278.142-1.922.496-1.703.485.299.974-1.531.695-2.599-.115-.436-.017-.911.216-1.055.268-.166.305-.069.101.261-.214.346-.167.427.138.238.254-.157.462-.896.462-1.642 0-.746.225-1.5.5-1.676.275-.176.518-.545.54-.82.121-1.518.189-1.729.496-1.54.184.114.359-.423.388-1.193.029-.771.333-1.681.674-2.023.379-.378.584-1.18.525-2.054-.057-.846.103-1.499.39-1.594.295-.099.487-.941.487-2.129 0-1.482.148-1.967.6-1.967.731 0 .77-.457.1-1.179-.4-.431-.4-.482 0-.256.368.208.5-.199.5-1.541 0-1.003.18-1.824.4-1.824.231 0 .4-1.252.4-2.957 0-2.144.152-3.016.551-3.169.777-.298.726-32.929-.051-32.774-.475.095-.717-2.03-.592-5.2.024-.605-.126-1.1-.332-1.1-.207 0-.376-1.08-.376-2.4 0-1.867-.133-2.4-.6-2.4-.585 0-.785-1.009-.616-3.1.043-.524-.152-.9-.466-.9-.392 0-.496-.457-.38-1.67.112-1.176-.021-1.801-.45-2.115-.334-.245-.671-.978-.748-1.63-.077-.652-.5-1.514-.94-1.915-.44-.402-.602-.633-.36-.514.266.131.452-.251.473-.97.018-.652-.145-1.186-.363-1.186-.219 0-.286.18-.15.4.136.22.075.4-.136.4-.211 0-.478-.765-.594-1.7-.38-3.074-.911-4.902-1.395-4.8-.283.06-.475-.384-.475-1.1 0-.853-.193-1.2-.667-1.2-.366 0-.548-.118-.403-.263.145-.145.04-.54-.233-.877-.397-.489-.396-.553.003-.313.275.165.5.11.5-.123 0-.233-.26-.424-.577-.424-.913 0-1.762-1.543-1.559-2.832.135-.854.023-1.168-.417-1.168-.934 0-1.788-1.529-1.583-2.832.111-.705.006-1.168-.264-1.168-.246 0-.336.18-.2.4.136.22.057.4-.176.4-.233 0-.424-.649-.424-1.443 0-1.087-.141-1.388-.572-1.223-.417.16-.553-.07-.5-.847.048-.707-.131-1.074-.528-1.087-.33-.01-.575-.33-.544-.71.03-.379-.092-.69-.273-.69-.18 0-.385-.405-.455-.9s-.398-.924-.728-.954c-.33-.029-.741-.074-.914-.1-.173-.025-.107-.433.146-.907.384-.717.361-.822-.14-.63-.419.161-.549.028-.427-.439.107-.413-.166-.824-.709-1.07-.485-.22-1.169-.842-1.519-1.383-.383-.591-.438-.861-.137-.676.887.543.531-.201-.473-.991-.535-.421-1.035-1.167-1.11-1.658-.075-.491-.338-.853-.584-.806-.246.047-.669-.448-.939-1.1-.27-.652-.735-1.186-1.033-1.186-.299 0-.836-.448-1.196-.997-.359-.548-.841-.88-1.071-.738-.234.145-.299.067-.149-.176.148-.239-.14-.739-.638-1.111-.714-.533-.746-.622-.15-.418.674.23.696.181.2-.451-.647-.824-1.585-1.48-2.157-1.508-.22-.01-.352-.307-.294-.66.058-.353-.369-.952-.949-1.333-.581-.38-.933-.492-.783-.249.15.242.079.441-.158.441-.26 0-.332-.397-.18-1 .161-.643.082-1-.221-1-.589 0-1.615-.998-1.615-1.571 0-.236-.27-.429-.6-.429-.33 0-.6-.199-.6-.443 0-.243-.261-.343-.58-.22-.376.144-.505.03-.369-.327.179-.466-1.211-1.606-1.851-1.518-.11.016-.142-.172-.072-.417.184-.636-1.085-1.458-1.867-1.21-.482.153-.522.111-.15-.157.667-.481-1.282-2.682-2.097-2.369-.631.242-1.557-.663-1.123-1.097.157-.156-.027-.165-.408-.019-.523.201-.632.109-.445-.378.16-.416.035-.645-.349-.645-.328 0-.882-.435-1.23-.966-.44-.672-.88-.901-1.446-.753-.522.136-.818.016-.826-.334-.006-.301-.501-.899-1.1-1.328-1.078-.776-1.083-.776-.533 0 .305.429-.176.016-1.069-.919s-1.918-1.7-2.278-1.7c-.36 0-.543-.18-.407-.4.136-.22-.021-.4-.348-.4-.327 0-.884-.289-1.238-.643-.402-.402-1.08-.579-1.804-.473-.995.146-1.108.073-.792-.517.379-.709-.302-1.266-1.618-1.324-.33-.015-.729-.345-.887-.735-.158-.389-.653-.708-1.1-.708-.447 0-.813-.18-.813-.4 0-.22-.191-.4-.424-.4-.233 0-.324.161-.202.358.122.197-.038.458-.356.58-.405.155-.503.028-.33-.424.153-.398.086-.545-.175-.384-.232.143-.522-.121-.644-.587-.163-.623-.441-.791-1.045-.633-.566.148-.824.024-.824-.394 0-.414-.259-.542-.805-.399-.541.142-.946-.052-1.234-.591-.279-.52-.698-.731-1.195-.601-.487.127-.766-.005-.766-.362 0-.327-.401-.563-.957-.563-.527 0-1.06-.267-1.185-.593-.137-.357-.489-.493-.883-.342-.362.139-.803.013-.985-.282-.182-.293-.923-.578-1.647-.633-.725-.056-1.504-.348-1.73-.649-.227-.301-1.108-.559-1.958-.574-.85-.014-1.687-.255-1.86-.535-.212-.343-.804-.43-1.809-.267-1.34.217-1.416.185-.741-.309.819-.599-.78-1.351-1.944-.914-.276.103-.861.029-1.301-.166-.701-.309-.681-.329.158-.167.673.131.832.061.534-.237-.232-.232-1.148-.353-2.035-.269-1.32.126-1.647.017-1.81-.604-.174-.667-.462-.729-2.422-.515-1.432.156-2.225.094-2.225-.174 0-.23.18-.306.4-.17.22.136.4.057.4-.176 0-.579-.921-.534-1.579.076-.431.4-.482.4-.256 0 .209-.371-.236-.5-1.729-.5-1.674 0-1.97-.107-1.767-.636.281-.732-1.62-.717-2.646.021-.424.305-.5.287-.286-.069.21-.351-.111-.453-1.162-.37-.868.068-1.529-.082-1.64-.372-.241-.628-30.135-.799-30.135-.173 0 .22-.191.399-.424.399-.233 0-.312-.18-.176-.4.144-.233-.263-.4-.976-.4-.673 0-1.224.199-1.224.443m22.3 10.848c-.068.336.691.534 2.4.625 2.057.11 2.5.023 2.5-.491 0-.344.27-.625.6-.625.33 0 .6.191.6.424 0 .233-.18.312-.4.176-.22-.136-.4-.071-.4.145 0 .216.829.348 1.843.295 1.035-.055 2.054.114 2.326.386.279.279 1.628.49 3.191.499 2.068.012 2.825.175 3.202.691.371.508.948.64 2.315.53 1.406-.113 1.774-.023 1.614.394-.163.424.278.511 2.047.4 1.947-.121 2.225-.05 2.044.519-.174.546.067.645 1.404.577.92-.047 1.614.099 1.614.341.001.233.734.451 1.629.486 1.033.04 1.816.319 2.14.762.33.452.816.62 1.371.475.579-.152.86-.041.86.337 0 .31.135.542.3.516 1.245-.197 2.5.128 2.5.647 0 .33.18.6.4.6.22 0 .4-.208.4-.461 0-.254.321-.091.713.361.518.597 1.02.764 1.83.609.929-.178 1.094-.087.987.539-.105.609.155.776 1.37.876.825.068 1.5.304 1.5.524 0 .219.175.291.389.159.214-.133.704.127 1.089.576.385.449 1.02.817 1.411.817s.711.18.711.4c0 .22.191.4.424.4.233 0 .296-.225.141-.5-.208-.369-.135-.363.276.02.308.286.559.736.559 1s.405.538.9.608c.495.07.9.295.9.5 0 .205.675.386 1.5.404.825.017 1.275.122 1 .233-.953.384-.495.949.6.74.605-.115.875-.104.6.026s-.5.407-.5.616c0 .225.331.204.806-.05.619-.331.781-.312.7.086-.058.284.113.474.38.422.28-.055.389.156.257.5-.146.38.012.595.438.595.402 0 .553-.183.381-.462-.177-.286-.11-.353.176-.176.254.157.462.555.462.885 0 .33.192.481.427.336.235-.145.526.114.647.577.12.462.468.84.773.84.304 0 .553.191.553.424 0 .233.165.321.368.196.202-.125.685.089 1.073.476.388.387.897.728 1.132.758.235.029.652.074.927.1.275.025.5.394.5.819 0 .425.36.887.8 1.027.44.14.8.432.8.651 0 .218.192.277.427.132.235-.145.526.114.647.577.12.462.351.84.511.84.161 0 .905.595 1.654 1.322.748.727 1.541 1.357 1.761 1.4.22.043.404.303.409.578.005.275.317.448.694.384.505-.086.617.071.427.6-.142.394-.115.587.059.43.434-.392 1.891.434 1.599.906-.13.209-.032.38.217.38.497 0 1.766 1.149 1.845 1.671.028.181.073.509.1.729.028.22.267.355.532.3.265-.055.494.17.509.5.015.338.326.549.712.484.499-.085.613.069.423.566-.177.461-.111.588.206.392.277-.171.468-.047.468.305 0 .327.45.949 1 1.382.55.432 1 .908 1 1.057 0 .149.27.541.6.871.33.33.6.475.6.323 0-.153.274-.051.609.227.352.292.509.82.373 1.249-.214.675.151.938 1.104.796.157-.023.182.225.057.553-.214.556.295.803 1.257.609.22-.044.28.04.133.187-.386.385.475 2.641.906 2.375.199-.123.361.07.361.429 0 .739.799 1.666 1.4 1.624.22-.016.456.363.524.842s.383 1.086.7 1.349c.317.263.576.8.576 1.194 0 .512.265.686.933.613.535-.059.934.111.934.397 0 .275-.24.408-.534.295-.293-.112-.533-.02-.533.205 0 .225.166.469.37.543.203.073.428.402.5.732.071.329.365.784.652 1.011.288.226.575.677.64 1.001.215 1.081.719 1.989 1.104 1.989.21 0 .253-.208.096-.462-.177-.286-.11-.353.176-.176.254.157.462.602.462.99 0 .997 1.386 3.729 1.721 3.393.154-.153.302.112.329.588.028.477.073 1.199.1 1.606.028.406.29 1.028.584 1.382.294.354.427.819.295 1.033-.133.213.122.504.566.644.621.197.75.481.562 1.229-.136.543-.068.973.155.973.219 0 .518.635.664 1.411.145.776.416 1.317.602 1.202.417-.257.91.921.598 1.426-.125.202.01.457.299.568.296.114.508.765.487 1.49-.049 1.634.238 2.75.642 2.501.475-.294.727.689.556 2.164-.11.942-.01 1.266.349 1.128.362-.139.463.222.361 1.294-.093.981.075 1.704.494 2.123.397.397.636 1.328.636 2.477 0 1.109.2 1.918.503 2.034.342.131.49 1.083.464 2.987-.021 1.537.108 2.795.287 2.795s.615.56.969 1.244c.354.684.439 1.118.19.964-.329-.203-.428.805-.361 3.656.093 3.999.249 4.943.698 4.216.138-.223.25 2.345.25 5.706 0 4.724-.113 6.068-.5 5.92-.544-.208-.75 3.911-.222 4.439.449.449.49 1.482.048 1.209-.251-.155-.368.337-.309 1.298.15 2.442.03 2.948-.697 2.948-.529 0-.573.107-.2.48.264.264.477.669.474.9-.003.231-.181.15-.394-.18-.32-.495-.389-.456-.394.22-.003.451.219 1.062.494 1.359.403.434.395.479-.043.23-.433-.246-.496.023-.312 1.337.159 1.139.087 1.616-.234 1.55-.674-.139-.887 1.347-.25 1.75.399.253.409.343.039.348-.275.003-.5.379-.5.835 0 .455-.294 1.122-.654 1.482-.428.428-.497.705-.2.804.25.084.454.327.454.542 0 .215-.18.279-.4.143-.226-.14-.4.188-.4.753 0 .55-.179 1.11-.397 1.245-.218.135-.328.954-.244 1.82.102 1.041.01 1.486-.271 1.313-.27-.167-.325-.005-.151.448.192.501.113.649-.269.502-.388-.148-.556.2-.595 1.226-.03.789-.247 1.553-.483 1.699-.236.146-.344.733-.24 1.305.136.752.041.984-.345.836-.312-.12-.653.173-.822.706-.173.545-.116.969.141 1.055.237.079.336.391.22.693-.115.301-.481.445-.812.318-.417-.16-.577 0-.521.525.142 1.328.003 1.756-.571 1.756-.37 0-.533.394-.48 1.157.056.806-.078 1.096-.44.957-.298-.115-.52.084-.52.467 0 .426.18.558.5.366.357-.214.347-.111-.034.359-.294.362-.431.826-.305 1.031.127.205-.153.472-.62.594-.716.187-.814.432-.623 1.546.125.728.135 1.098.022.823-.376-.911-1.037-.518-.842.5.131.687.013 1-.377 1-.313 0-.457.18-.321.4.136.22.046.4-.2.4s-.337.178-.203.395c.14.227-.02.294-.376.158-.756-.29-.839.666-.121 1.396.275.279.32.474.1.432-1.191-.226-1.715.057-1.516.819.149.568.012.8-.471.8-.374 0-.605.223-.514.496.091.273-.074.736-.367 1.029-.293.293-.532.874-.532 1.291 0 .541-.19.686-.659.506-.537-.206-.621-.055-.456.813.144.752.036 1.065-.369 1.065-.753 0-1.539.811-1.906 1.969-.221.697-.169.853.209.619.328-.202.405-.15.219.15-.157.254-.539.462-.849.462-.362 0-.472.239-.308.666.17.443.101.57-.207.38-.511-.316-2.878 1.885-2.868 2.668.004.312.158.271.431-.114.34-.481.393-.487.27-.029-.085.315-.504.765-.931 1-.427.236-.927.667-1.112.958-.185.291-.866 1.001-1.513 1.578-.647.577-1.083 1.293-.969 1.591.115.299.031.434-.187.299-.217-.134-.395.036-.395.379s-.135.603-.3.577c-.923-.146-1.362.109-1.147.668.136.356.069.516-.158.376-.217-.134-.395-.061-.395.163 0 .574-2.98 3.64-3.538 3.64-.254 0-.462.27-.462.6 0 .33-.135.579-.3.553-.923-.146-1.362.109-1.147.668.149.389.074.519-.2.35-.296-.183-.351.038-.17.679.148.522.123.764-.057.537-.556-.706-1.197-.442-2.708 1.113-.801.825-1.647 1.5-1.88 1.5-.233 0-.312.29-.176.645.175.457.075.578-.346.417-.326-.126-.855.034-1.176.355-.321.321-.795.583-1.054.583s-.372.261-.249.58c.144.376.03.505-.327.369-.303-.117-.75.166-.999.631-.248.463-.622.737-.831.608-.209-.13-.38.029-.38.351 0 .389-.269.516-.8.377-.556-.146-.8-.012-.8.437 0 .356-.27.647-.6.647-.33 0-.6.18-.6.4 0 .22-.317.4-.704.4-.387 0-.933.367-1.213.816-.28.448-.683.707-.896.576-.213-.132-.387-.049-.387.184 0 .233-.379.424-.843.424-.585 0-.772.184-.612.6.174.453-.071.6-1 .6-.885 0-1.171.156-1.018.555.143.372-.011.496-.469.376-.739-.193-2.609 1.185-2.184 1.61.143.142-.086.28-.507.305-1.561.094-1.8.164-2.08.608-.158.249-.647.53-1.087.623-.44.094-.761.368-.712.61.053.269-.355.37-1.055.259-.703-.11-1.379.058-1.759.437-.339.339-1.009.617-1.488.617-.623 0-.804.177-.633.621.149.39.074.52-.202.349-.242-.15-.598-.024-.79.279-.252.399-.35.413-.355.051-.003-.275-.186-.5-.406-.5-.22 0-.4.27-.4.6 0 .4-.4.6-1.2.6-.73 0-1.2.208-1.2.531 0 .361-.381.475-1.195.355-.846-.124-1.268.013-1.443.469-.169.44-.742.645-1.805.645-1.01 0-1.557.182-1.557.52 0 .363-.443.468-1.468.348-.952-.111-1.619.024-1.9.385-.511.658-2.797 1.738-2.434 1.15.143-.231-.189-.403-.774-.403-.563 0-1.024.18-1.024.4 0 .22-.816.4-1.813.4-1.242 0-1.885.189-2.042.6-.176.458-.928.6-3.188.6-1.895 0-2.957.159-2.957.443 0 .254.293.33.688.179.378-.146.55-.127.382.041-.167.168-2.522.255-5.232.195-4.043-.091-5.041.002-5.554.516-.703.702-12.14.964-11.71.268.385-.623-.792-.795-5.183-.758-2.954.025-4.362-.114-4.57-.45-.206-.333-1.202-.438-3.157-.334-2.445.13-2.889.051-3.078-.545-.182-.572-.626-.676-2.504-.586-1.255.06-2.057.031-1.782-.063.275-.095.5-.338.5-.539 0-.531-1.356-.451-1.92.113-.373.373-.48.373-.48 0 0-.264-.461-.48-1.024-.48s-.92-.167-.794-.371c.388-.628-1.372-.934-2.078-.362-.362.293-.535.328-.385.078.5-.834-.791-1.488-1.317-.667-.419.654-.442.656-.245.022.175-.563-.025-.7-1.025-.7-.712 0-1.458-.293-1.745-.685-.443-.606-.583-.618-1.22-.1-.397.322-.593.372-.437.113.444-.741-.442-1.191-2.517-1.278-.881-.037-1.128-.205-.958-.65.127-.33.031-.6-.212-.6-.244 0-.449.225-.456.5-.008.275-.351.095-.764-.4-.794-.951-2.306-1.293-1.77-.4.207.344.091.33-.372-.045-.37-.3-.585-.686-.479-.858.242-.391-1.704-.905-2.22-.586-.21.13-.382-.065-.382-.434 0-.475-.235-.609-.805-.46-.541.142-.946-.052-1.234-.591-.279-.52-.698-.731-1.195-.601-.495.129-.766-.005-.766-.38 0-.331-.301-.53-.7-.463-.391.066-.656-.103-.6-.382.057-.283-.291-.497-.8-.494-.728.005-.785.08-.3.394.361.233.41.39.124.394a.939.939 0 0 1-.728-.401c-.138-.223-.419-.302-.624-.176-.204.127-.372.04-.372-.193s.18-.424.4-.424c.22 0 .4-.18.4-.4 0-.22-.551-.4-1.224-.4-.713 0-1.12-.167-.976-.4.136-.22.072-.4-.143-.4-.215 0-.462.216-.55.48-.1.3-.258.225-.421-.2-.144-.374-.076-.68.15-.68.226 0 .31-.164.186-.365-.124-.2-.679-.314-1.233-.254-.555.061-1.122-.072-1.261-.297-.144-.233-.054-.286.21-.122.254.157.462.098.462-.131s-.45-.529-1-.667-1-.411-1-.607c0-.197-.371-.357-.824-.357-.481 0-.714-.177-.56-.427.383-.618-1.035-1.517-2.092-1.325-.66.12-.844.009-.683-.411.245-.638-1.144-1.582-1.653-1.123-.174.157-.187.061-.029-.214.177-.306.054-.5-.316-.5-.332 0-.789-.315-1.016-.7-.33-.561-.482-.594-.764-.166-.283.428-.401.404-.603-.121-.146-.383-.087-.553.145-.41.217.134.395.054.395-.179 0-.233-.371-.424-.824-.424-.527 0-.719-.169-.534-.468.196-.317.069-.383-.397-.205-.412.158-.588.104-.439-.136.269-.436-2.077-2.98-2.775-3.009-.237-.01-.386-.235-.331-.5.055-.265-.17-.482-.5-.482-.33 0-.555-.225-.5-.5.058-.292-.275-.48-.8-.452-.63.033-.9-.177-.9-.7 0-.411-.193-.748-.429-.748-.624 0-1.462-.938-1.633-1.828-.082-.425-.416-.78-.743-.79-.327-.01-.55-.235-.495-.5.055-.265-.17-.482-.5-.482-.33 0-.555-.135-.5-.3.055-.165-.08-.371-.3-.459-.22-.087-.712-.672-1.094-1.3-.382-.627-.978-1.141-1.324-1.141-.346 0-.518-.18-.382-.4.136-.22.057-.4-.176-.4-.233 0-.424-.27-.424-.6 0-.33-.27-.6-.6-.6-.34 0-.6-.359-.6-.829 0-.828-.186-1.07-1.981-2.571-.526-.44-.825-.575-.664-.3.161.275.101.5-.133.5s-.379-.581-.324-1.29c.073-.916-.072-1.299-.498-1.318-.33-.016-.552-.255-.493-.532.123-.577-.841-1.66-1.478-1.66-.236 0-.429-.324-.429-.72 0-.396-.192-.912-.428-1.148-.235-.235-.477-.766-.538-1.18-.061-.413-.363-.76-.672-.77-.309-.01-.51-.257-.446-.549.069-.314-.113-.443-.446-.315-.415.159-.55-.116-.516-1.051.03-.819-.131-1.232-.454-1.167-.436.087-.694-.669-.547-1.6.026-.165-.133-.3-.353-.3-.22 0-.4-.289-.4-.643 0-.373-.225-.556-.536-.437-.747.287-1.791-1.686-1.597-3.02.11-.756-.016-1.1-.404-1.1-.311 0-.812-.305-1.114-.677-.368-.453-.385-.578-.052-.378.352.211.473-.001.413-.723-.06-.731-.316-1.024-.897-1.028-.605-.005-.675-.094-.274-.348.644-.408.42-1.889-.263-1.746-.446.094-.655-.651-.506-1.8.036-.275-.194-.5-.511-.5-.396 0-.558-.406-.518-1.291.041-.903-.122-1.295-.541-1.305-.381-.008-.557-.326-.481-.873.066-.473-.097-.994-.362-1.157-.33-.205-.379-.122-.155.264.188.324.176.424-.03.237-.196-.179-.36-1.258-.364-2.398-.006-1.569-.153-2.072-.607-2.074-.431-.002-.592-.428-.573-1.518.017-.949-.138-1.451-.415-1.345-.286.11-.386-.308-.284-1.185.111-.951-.004-1.357-.385-1.361-.452-.005-.45-.066.009-.356.443-.281.403-.398-.2-.589-.61-.193-.743-.602-.699-2.144.03-1.048-.143-2.265-.383-2.705-.241-.44-.445-1.97-.454-3.4-.012-1.86-.159-2.572-.517-2.5-.523.105-.677-1.819-.514-6.445.061-1.721-.044-2.267-.392-2.051-.362.223-.366.092-.02-.556.276-.515.3-.848.061-.848-.235 0-.443-2.346-.514-5.801-.083-3.959.016-5.8.311-5.8.281.001.453-1.634.493-4.679.049-3.723.186-4.75.668-5.02.93-.521.844-3.549-.093-3.257-.653.203-.654.188-.017-.223.376-.243.581-.708.456-1.034-.125-.326.044-1.006.376-1.512.441-.674.493-1.117.193-1.652-.312-.558-.29-.658.092-.422.376.232.458-.053.33-1.145-.121-1.043-.015-1.455.374-1.455.321 0 .426.204.255.5-.158.275-.136.363.049.195.184-.168.405-1.068.491-2 .085-.932.323-1.755.528-1.828.205-.074.373-.939.373-1.924 0-1.056.159-1.692.388-1.55.49.303.972-1.536.688-2.624-.13-.498.009-.903.355-1.036.314-.121.569-.747.569-1.399 0-.65.161-1.082.358-.96.409.253.842-.675.842-1.807 0-.422.18-.767.4-.767.22 0 .4-.431.4-.957 0-.527.274-1.063.609-1.191.401-.154.547-.581.427-1.243-.131-.725-.008-1.009.439-1.009.535 0 .545-.096.074-.677-.302-.372-.341-.552-.086-.399.312.187.392.009.247-.547-.159-.606.01-.883.637-1.047.469-.123.853-.483.853-.8 0-.318-.15-.485-.333-.371-.184.113-.334-.056-.334-.377 0-.32.342-.582.761-.582.567 0 .698-.195.517-.766-.162-.51.028-.956.57-1.336.448-.313.695-.689.55-.834-.145-.145.02-.264.367-.264.427 0 .598-.307.528-.945-.072-.657.091-.932.535-.9.488.034.613-.276.53-1.312-.095-1.175-.028-1.289.5-.851.712.592.831-.01.138-.703-.36-.36-.261-.43.428-.297.571.11.84 0 .74-.301-.087-.261.171-.827.573-1.258.401-.431.73-1.211.73-1.732 0-.535.176-.84.403-.699.521.322 1.597-.753 1.597-1.597 0-.359.161-.553.358-.431.49.303.875-.822.561-1.64-.17-.444-.101-.57.208-.379.805.497 2.554-1.701 2.669-3.355.023-.33.268-.552.544-.493.577.123 1.66-.842 1.66-1.478 0-.236.135-.435.3-.442.165-.006.646-.486 1.068-1.065.423-.58.53-.906.239-.726-.364.225-.436.174-.228-.161.166-.269.574-.385.906-.258.419.161.533.048.374-.368-.127-.33-.102-.58.055-.557.797.119 1.276-.104 1.186-.552-.055-.275.125-.455.4-.4.275.055.5-.22.5-.611 0-.732 1.302-2.089 2.005-2.089.217 0 .395-.27.395-.6 0-.555.496-.787 1.349-.631.192.035.244-.211.114-.548-.129-.336-.106-.592.051-.569.797.119 1.276-.104 1.186-.552-.055-.275.125-.455.4-.4.44.088.661-.366.563-1.152-.017-.139.367-.589.853-1l.884-.748-.8.957-.8.956.9-.553c.495-.304.914-.914.932-1.356.017-.442.122-.579.233-.304.369.915 1.031.516.836-.503-.156-.818-.089-.919.36-.546.429.355.716.267 1.292-.397.781-.901 1.494-1.178 1.009-.392-.178.288-.11.353.183.172.257-.159.364-.457.238-.662-.127-.204-.053-.372.163-.372s.944-.552 1.619-1.226c.674-.675 1.408-1.114 1.631-.977.222.138.404.06.404-.173 0-.233.27-.424.6-.424.33 0 .6-.354.6-.787 0-.572.183-.718.669-.531.494.189.607.093.43-.367-.18-.47-.043-.573.552-.417.496.129 1.092-.115 1.594-.655.442-.473.972-.756 1.179-.628.355.219.555-.371.401-1.183-.039-.202.244-.112.627.2.619.504.668.489.435-.132-.259-.693-.054-.812 1.404-.808.38.001.603-.139.496-.312-.106-.173.349-.434 1.013-.58.664-.146 1.113-.417.998-.604-.115-.186.153-.453.596-.594.443-.141.806-.407.806-.592 0-.184.371-.238.824-.12.591.155.882-.007 1.03-.576.154-.588.456-.744 1.177-.606.714.136.969.009.969-.485 0-.369.19-.553.423-.409.604.373 2.457-.161 2.17-.626-.214-.345.998-.599 1.975-.413.202.039.118-.255-.187-.652-.305-.398-.402-.594-.215-.437.186.157.697.094 1.135-.14.574-.307.72-.303.524.014-.154.248 0 .44.351.44.343 0 .624-.27.624-.6 0-.526 1.399-.836 2.254-.5.14.055.431-.35.646-.9.228-.583.47-.791.579-.5.255.679 1.207.632 1.605-.078.184-.33 1.04-.621 1.993-.677 1.288-.076 1.728-.287 1.923-.922.16-.518.33-.638.46-.323.303.733 2.54.645 2.54-.1 0-.36.4-.62 1-.65.55-.027 1.18-.095 1.4-.15.22-.055.591-.122.824-.15.233-.027.34-.185.237-.35-.102-.165.743-.3 1.877-.3 1.25 0 2.032-.169 1.985-.43-.07-.395 2.005-.667 5.356-.701.704-.007 1.188-.161 1.076-.341-.24-.388.057-.411 5.179-.393 4.084.014 5.217-.168 4.84-.777-.126-.205 2.359-.358 5.802-.358 4.549 0 6 .12 5.924.491m-26.3 34.222c0 .526-.289.698-1.1.654-.605-.033-1.309.105-1.564.306-.287.226-.564.206-.724-.054-.389-.63-1.012-.504-1.012.205 0 .343-.19.506-.423.362-.713-.441-2.473.188-2.238.8.155.403-.055.504-.781.372-.945-.171-2.365.701-1.899 1.167.121.122-.186.115-.682-.015-.624-.163-.814-.093-.616.227.17.275.033.463-.337.463-.343 0-.624.163-.624.363 0 .199.405.284.9.188.834-.161.829-.143-.074.252-.536.234-1.238.325-1.56.201-.572-.219-2.206 1.123-1.828 1.501.104.104-.356.299-1.024.432-.872.175-1.214.471-1.214 1.053 0 .446-.191.81-.424.81-.233 0-.312-.18-.176-.4.494-.8-.255-.372-1.401.801-.747.764-1.092 1.454-.948 1.9.159.496.118.551-.142.19-.454-.629-2.335.819-1.925 1.483.154.25.011.322-.358.181-.414-.159-.744.104-1.011.804-.217.573-.588 1.041-.824 1.041-.599 0-2.42 2.03-2.175 2.425.11.179-.276.239-.857.133-.844-.153-1.008-.063-.813.446.161.42.087.54-.219.351-.315-.195-.376-.059-.189.428.222.579.114.672-.576.491-.622-.163-.906-.008-1.059.575-.114.438-.432.71-.705.606-.273-.105-.73.244-1.015.777-.285.532-.779.968-1.097.968-.395 0-.508.272-.355.858.159.607.1.733-.202.431-.603-.603-1.529-.146-1.529.754 0 .416-.191.757-.424.757-.233 0-.312-.18-.176-.4.45-.727-.293-.415-1.028.432-.397.458-.626 1.133-.509 1.5.176.552.141.568-.198.089-.335-.473-.737-.237-2.198 1.288-1.618 1.689-1.841 1.803-2.328 1.202-.461-.568-.452-.62.061-.358.533.272.533.247 0-.223-.33-.292-.6-1.115-.6-1.83 0-.715-.173-1.287-.384-1.27-.556.042-.974-1.282-.735-2.33.118-.516.016-.9-.238-.9-.243 0-.443-.45-.443-1s-.191-1-.424-1c-.233 0-.312.18-.176.4.136.22.057.4-.176.4-.365 0-.622-1.146-.471-2.1.026-.165-.178-.303-.453-.306-.365-.005-.352-.1.047-.353.444-.281.393-.501-.266-1.16-.448-.448-.705-.924-.571-1.058.565-.565.475-1.792-.115-1.566-.53.204-.777-.899-.561-2.512.019-.141-.157-.373-.39-.518-.233-.144-.498-.704-.589-1.244-.09-.541-.365-.938-.61-.883-.408.092-.645-.759-.466-1.678.115-.594-.865-2.216-1.21-2.003-.171.106-.426-.17-.567-.613-.32-1.008-3.002-1.192-3.002-.206 0 .33-.177.6-.392.6-.216 0-.502.437-.636.971-.262 1.042-1.195 1.639-1.583 1.012-.309-.501-2.189-.497-2.189.004 0 .214-.252.291-.56.173-.592-.227-.672 2.817-.099 3.745.15.242.089.553-.134.691-.638.394-.476 1.116.193.859.452-.173.6.069.6.981 0 .666.16 1.113.355.992.195-.121.563.033.819.341.318.383.333.642.045.819-.647.4-.495 1.127.181.867.452-.173.6.069.6.981 0 .666.16 1.113.355.992.195-.121.563.033.819.341.318.383.333.642.045.819-.647.4-.495 1.127.181.867.45-.172.6.066.6.958 0 .653.135 1.158.3 1.123.994-.21 1.721.56 1.016 1.076-.66.483-.627.593.486 1.625.673.623 1.141 1.425 1.071 1.835-.073.43.118.728.464.728.382 0 .518.268.388.766-.13.497.081.916.601 1.195.539.288.733.693.591 1.234-.138.529-.015.805.36.805.411 0 .547.443.488 1.598-.057 1.11.058 1.514.377 1.323.252-.151.212.028-.088.399-.31.382-.468 1.201-.367 1.894.099.672.002 1.331-.215 1.465-.221.137-.27.041-.11-.217.157-.254.095-.462-.138-.462s-.424.461-.424 1.024c0 .585.172.917.403.774.223-.137.182.255-.092.877-.272.619-.712 1.263-.977 1.431-.706.446-.55 8.675.159 8.403.34-.13.507.201.507 1.005 0 .698.251 1.297.6 1.431.33.126.6.056.6-.158 0-.213.216-.387.48-.387.373 0 .373.107 0 .48-.743.743-.57 1.15.42.986.495-.082.675-.072.4.022-.874.299-.538.912.5.912.646 0 1 .224 1 .633 0 .349.221.56.491.47.509-.17 1.093.197 2.226 1.397.368.39 1.242.7 1.972.7.721 0 1.311.191 1.311.425 0 .234.405.369.9.3.803-.112.914.068 1.028 1.667.07.986.302 2.003.516 2.261.253.305.251.518-.007.608-.217.076-.45.971-.516 1.988-.089 1.365-.264 1.794-.666 1.64-.423-.162-.513.197-.4 1.6.112 1.396.021 1.762-.395 1.602-.412-.158-.495.131-.351 1.205.145 1.076-.001 1.576-.614 2.101-.656.561-.702.753-.249 1.04.399.252.414.352.054.357-.275.003-.5.186-.5.406 0 .22.27.4.6.4.33 0 .6.174.6.387 0 .214-.29.277-.644.141-.545-.209-.615.007-.454 1.403.105.907.032 1.552-.162 1.432-.194-.12-.249-.386-.123-.591.127-.204.056-.372-.156-.372-.495 0-.526 19.233-.033 19.831.196.238.41.778.476 1.2.065.423.277 1.022.469 1.331.239.382.205.471-.107.279-.299-.185-.372-.06-.21.361.136.354.485.553.775.441.347-.133.447.01.29.418a.844.844 0 0 0 .321.973c.399.253.415.355.058.36-.275.003-.5.205-.5.449 0 .243.282.334.626.202.485-.186.568-.055.366.58-.187.59.044 1.102.825 1.826.806.747.97 1.122.634 1.458-.646.646-.557 1.217.149.946.452-.173.6.069.6.981 0 .719.165 1.109.407.96.223-.138.285-.447.138-.685-.148-.239-.085-.321.14-.182.224.138.321.706.215 1.261-.113.592-.008 1.01.253 1.01.246 0 .447.32.447.711 0 .391.368 1.026.817 1.411.449.385.71.872.58 1.084-.221.356.001.727 1.303 2.179.275.307.5.731.5.944 0 .212.272.49.604.617.332.127.58.372.552.543-.132.808.089 1.302.544 1.211.275-.055.445.154.379.463-.067.31.054.672.268.804.214.132.448.494.521.803.144.613 1.383 2.03 1.775 2.03.133 0 .135-.279.004-.621-.131-.341-.072-.518.131-.392.203.125.263.885.132 1.687-.202 1.247-.14 1.423.427 1.206.675-.26.825.068.674 1.476-.057.541.1.687.554.513.494-.19.635.026.635.967 0 .719.165 1.109.407.96.223-.138.302-.419.176-.624-.389-.629.087-.412.668.305.373.46.389.58.049.376-.339-.203-.5-.02-.5.566 0 .575.187.795.555.654.399-.153.493.021.337.619-.157.6-.077.746.285.522.393-.243.406-.129.058.521-.366.684-.312.903.309 1.235.902.483.755 3.388-.221 4.364-.322.322-.502.905-.399 1.296.126.484.009.642-.369.497-.37-.142-.555.082-.555.673 0 .623-.178.817-.6.655-.33-.126-.6-.081-.6.102 0 .182-.627.996-1.393 1.808s-1.351 1.622-1.3 1.799c.051.177-.854 1.228-2.011 2.336-1.375 1.317-2.022 2.227-1.868 2.628.171.446.035.561-.496.422-.642-.167-.735.081-.757 2.026-.026 2.379.251 2.685 2.225 2.447 1.418-.171 1.459-.198.884-.563-.322-.204.127-.353 1.186-.394 2.073-.082 3.211-.412 2.938-.853-.112-.181.075-.436.415-.567.404-.154.519-.076.332.227-.194.313-.061.376.412.195.384-.147.858-.268 1.053-.268.195 0 .258-.254.139-.564-.205-.534 1.19-1.316 1.971-1.105.181.049.215-.096.076-.322-.14-.226.211-.587.78-.804.569-.216 1.139-.666 1.267-.999.128-.333.404-.606.613-.606.21 0 .253.208.096.462-.178.288-.11.353.183.172.257-.159.372-.444.255-.634-.117-.19-.03-.458.193-.596.224-.138.407-.443.407-.677 0-.253-.283-.203-.7.124-.633.497-.648.483-.155-.147.3-.382.705-.597.9-.476.195.121.355-.072.355-.428s.181-.535.403-.398c.571.353 1.597-.787 1.597-1.773 0-.495.259-.829.643-.829.487 0 .583-.244.392-1.003-.175-.698-.097-.971.257-.9.293.06.512-.292.518-.831.005-.513.306-1.099.667-1.301.905-.507.979-11.965.078-11.965-.325 0-.555-.414-.555-1 0-.593-.229-1-.563-1-.364 0-.489-.28-.354-.795.132-.504-.028-.886-.438-1.043-.355-.136-.645-.498-.645-.805 0-.306-.264-.557-.587-.557-.352 0-.498-.235-.363-.585.129-.338-.255-1.029-.913-1.639-.656-.609-1.084-1.377-1.012-1.816.079-.476-.108-.76-.5-.76-.344 0-.625-.18-.625-.4 0-.22-.29-.4-.643-.4-.472 0-.582-.246-.412-.921.157-.627-.018-1.135-.549-1.589-.44-.378-.677-.934-.545-1.279.129-.336.048-.611-.18-.611-.229 0-.477-.405-.553-.9-.075-.495-.358-.855-.627-.8-.469.096-.561-.074-.651-1.2-.022-.275-.49-.912-1.04-1.415-.762-.697-.821-.849-.245-.636.51.188.701.119.59-.215-.091-.272-.324-.464-.519-.428-.496.092-1.121-1.129-.824-1.609.135-.218.055-.397-.178-.397-.233 0-.424-.41-.424-.911 0-.501-.37-1.228-.822-1.615-.546-.468-.739-.968-.573-1.49.232-.731-.668-2.187-1.091-1.765-.099.1-.181-.081-.181-.401 0-.321.15-.49.334-.377.183.114.333.016.333-.217 0-.233-.225-.425-.5-.427-.636-.004-1.552-1.918-1.062-2.22.621-.384.399-.874-.504-1.11-.715-.187-.78-.33-.371-.823.621-.747.416-2.88-.263-2.744-.477.095-.64-1.027-.578-4 .022-1.08-.514-1.523-.801-.662-.08.24-.078-1.925.005-4.813.114-3.986.021-5.41-.388-5.915-.303-.374-.335-.542-.073-.385.34.204.448-.521.399-2.672-.051-2.223.057-2.905.434-2.76.616.236.665-.77.067-1.368-.313-.313-.313-.51 0-.703.239-.148.435-.619.435-1.046 0-.427.135-.791.3-.809 2.069-.228 4.1-.088 4.1.283 0 .561 4.397.626 5.078.075.263-.212 1.658-.417 3.1-.454 2.479-.064 3.242-.354 2.122-.806-.275-.111-.082-.216.429-.233.51-.018 1.222.262 1.582.622.428.428.705.497.804.2.229-.685.885-.544.885.189 0 .39.223.557.567.425.524-.201 1.243.739 1.097 1.432-.035.165.114.3.331.3.615 0 1.988 1.304 1.761 1.671-.112.181-.015.329.216.329.632 0 2.016 1.296 1.784 1.671-.112.181-.015.329.216.329.632 0 2.016 1.296 1.784 1.671-.112.181.179.329.646.329.65 0 .819.21.723.9-.093.668.054.87.569.784.517-.087.625.066.425.6-.229.609-.175.64.359.206.519-.421.671-.4.871.121.139.364.075.527-.154.386-.217-.134-.395-.094-.395.09 0 .422 1.594 1.812 1.616 1.409.009-.163.285.199.613.804s.765 1.1.971 1.1c.206 0 .271.27.145.6-.144.374.003.6.389.6.34 0 .747.208.904.462.185.3.109.352-.218.151-.277-.172-.194.16.185.738.378.577.926 1.049 1.218 1.049.314 0 .469.324.379.79-.094.489.22 1.084.823 1.558.536.422.975.889.975 1.038 0 .149.272.543.604.875.332.332.501.769.376.971-.206.333.346.538 1.12.415.165-.026.271.088.235.253-.134.625.829 2.401 1.428 2.63.362.139.525.498.387.855-.129.338-.036.615.207.615.244 0 .443.281.443.624 0 .343.178.513.395.379.236-.146.289.035.131.446-.194.505-.105.628.335.46.429-.165.578.014.524.63-.101 1.157.236 1.671.659 1.004.25-.394.345-.29.35.381.003.512.184.813.406.676.368-.227.573.546.44 1.654-.03.25.219.56.553.688.334.128.607.431.607.674 0 .243.276.717.614 1.055.337.337.512.933.388 1.324-.137.43.016.803.386.945.337.129.612.511.612.847 0 .337.18.613.4.613.22 0 .4.44.4.977 0 .557.383 1.246.889 1.6.489.343.675.623.413.623-.262 0-.374.269-.248.598.127.328.391.498.588.376.197-.122.358.149.358.602 0 .565-.259.824-.824.824-.453 0-.712-.18-.576-.4.136-.22.102-.413-.076-.43-1.12-.103-2.321-.434-2.507-.691-.119-.165-.748-.287-1.397-.27-.649.017-1.504-.293-1.9-.689-.396-.396-.72-.512-.72-.259 0 .254-.336.074-.747-.4-.411-.473-1.215-.861-1.787-.861-.761 0-.979-.161-.811-.6.165-.429-.039-.6-.717-.6-.533 0-1.263-.419-1.666-.956-.474-.63-.984-.888-1.495-.754-.548.143-.777-.001-.777-.489 0-.533-.261-.653-1.142-.524-.984.144-1.116.054-.95-.655.192-.82.19-.82-.488-.022-.373.44-.546.544-.384.232.216-.416.117-.499-.37-.313-.366.141-.666.082-.666-.132 0-.213.18-.387.4-.387.22 0 .4-.18.4-.4 0-.22-.559-.4-1.243-.4-.832 0-1.179-.166-1.05-.502.214-.557-.435-1.276-1.207-1.338-1.145-.092-1.3-.191-1.3-.836 0-.593-.078-.581-.63.1-.346.427-.532.578-.412.335.119-.243-.061-.783-.4-1.2-.34-.417-.488-.489-.329-.159.159.33-.42-.075-1.287-.9-.867-.825-1.804-1.5-2.082-1.5-.279 0-.396-.18-.26-.4.136-.22.057-.4-.176-.4-.233 0-.424-.27-.424-.6 0-.33-.194-.6-.431-.6-.516 0-3.569-3.107-3.569-3.633 0-.202-.371-.367-.824-.367-.453 0-.712-.18-.576-.4.136-.22.057-.4-.176-.4-.233 0-.424-.291-.424-.647 0-.474-.267-.595-1.003-.454-.729.139-.899.065-.62-.272.266-.32-.043-.82-.996-1.615-.76-.633-1.381-1.371-1.381-1.639s-.27-.591-.6-.718c-.33-.126-.6-.596-.6-1.042 0-.504-.266-.816-.7-.822-.385-.005-1.15-.382-1.7-.837-.755-.625-.814-.768-.243-.582.674.219.695.169.2-.463-.869-1.107-1.68-1.637-2.2-1.437a.634.634 0 0 1-.737-.24c-.16-.258-.018-.329.364-.183.454.174.557.064.378-.404-.231-.602-.706-.819-1.492-.682-.181.031-.217-.125-.079-.348.318-.515-.998-1.865-1.791-1.837-.33.012-.66.447-.734.966-.086.61.023.848.307.673.242-.15.336-.44.21-.645-.127-.204-.04-.372.193-.372.612 0 .521.622-.176 1.2-.746.619-.788 1.358-.062 1.079.384-.147.485.067.354.753-.122.635.034 1.041.462 1.206.355.136.646.678.646 1.205 0 .584.234.957.6.957.594 0 .772.46.612 1.578-.071.497.012.5.588.022.592-.491.655-.465.536.222-.077.439.07.739.336.687.3-.057.404.283.286.934-.14.773.007 1.075.6 1.23.816.214 1.512 1.327.829 1.327-.213 0-.387.199-.387.443 0 .243.264.341.587.217.323-.124.711-.025.862.219.166.269.092.332-.187.159-.254-.157-.462-.104-.462.119 0 .222.281.561.625.753.344.192.677.606.74.92.254 1.266.731 1.908 1.265 1.703.31-.119.674.072.809.423.134.352.451.537.703.412.252-.125.099.063-.34.418-.79.639-.18 1.695.674 1.167.173-.107.196.116.05.496-.212.552-.113.632.492.399.417-.16.628-.16.469-.002-.159.159-.031.574.284.922.561.619.629.799.629 1.656 0 .233.18.312.4.176.22-.136.4-.007.4.287 0 .554 1.588 2.134 1.616 1.609.009-.163.285.199.613.804s.765 1.1.971 1.1c.206 0 .259.301.118.669-.197.513-.096.608.433.405.427-.164.593-.107.435.148-.315.51.573 1.65 1.055 1.353.192-.119.243.063.112.404-.224.584.266.833 1.247.635.22-.044.271.048.114.205-.413.413.437 1.827 1.019 1.694.27-.062.548.067.618.287.343 1.075.94 1.814 1.382 1.713.27-.062.548.067.618.287.343 1.075.94 1.814 1.382 1.713.27-.062.548.067.618.287.371 1.162.972 1.838 1.467 1.648.306-.117.68-.013.831.231.176.285.073.34-.287.153-.309-.16-.25-.035.132.278.381.313.576.686.433.83-.236.235.444.419 1.159.312.157-.023.182.225.057.553-.126.327-.029.595.214.595a.437.437 0 0 0 .443-.429c0-.235.27-.158.6.172.33.33.6.808.6 1.062s.221.388.491.298c.502-.167.971.127 2.298 1.44.412.408.941.624 1.176.479.261-.162.334-.023.188.357-.178.463.026.621.804.621.66 0 1.043.22 1.043.6 0 .709.464.776 1.083.157.324-.324.57-.206.914.438.403.752.687.842 1.937.614 1.369-.249 1.413-.227.666.333-1.08.811.203 1.205 5.6 1.719 1.445.137 2.53.453 2.726.794.438.762 5.874.632 5.874-.14 0-.437 6.75-.87 8.542-.548.188.033.582-.138.875-.381.293-.243 1.399-.475 2.458-.514 1.265-.047 1.892-.238 1.83-.558-.055-.279.156-.389.498-.258.326.125.476.417.333.648-.153.247-.067.301.209.13.257-.159.364-.457.238-.662-.183-.296 1.792-.502 3.297-.342.154.016.434-.385.621-.891.223-.603.44-.759.629-.452.16.258.645.402 1.08.321.434-.081.936-.161 1.114-.177.178-.017.212-.211.076-.431s.033-.422.376-.45c1.148-.092 1.356-.148 1.657-.45.165-.165.72-.3 1.234-.3.513 0 .933-.193.933-.429 0-.732 1.109-1.645 1.3-1.071.117.352.364.293.861-.204.383-.383.964-.696 1.291-.696.327 0 .484-.18.348-.4-.136-.22.095-.4.512-.4.422 0 .962-.444 1.215-1 .251-.55.73-1 1.064-1 .335 0 .564-.225.509-.5-.055-.275.138-.451.43-.39.291.06.414-.076.274-.304-.141-.227.295-.727.968-1.11.765-.435 1.224-1.017 1.225-1.553.002-.472.292-.968.645-1.104.448-.172.57-.536.403-1.201-.166-.664-.045-1.029.399-1.2.364-.139.541-.501.41-.841-.14-.365.003-.597.368-.597.329 0 .769-.45.978-1 .209-.55.485-1 .614-1 .128 0 .122.18-.014.4-.136.22.143.4.619.4.592 0 .796-.183.644-.58-.148-.387-.03-.505.357-.357.319.123.58.023.58-.22 0-.244.191-.443.424-.443.233 0 .295.208.138.462-.184.297-.109.353.211.155.334-.207.365-.439.093-.711-.222-.222-.306-.657-.187-.966.174-.456.327-.428.798.148.32.392.481.507.357.257s.156-.554.622-.676c.563-.147.768-.43.61-.84-.137-.359-.041-.579.23-.524.257.052.476-.16.486-.472.01-.311.268-.65.574-.752.37-.123.45-.014.238.329-.21.339-.159.415.151.224.257-.159.377-.436.266-.616-.111-.18.074-.557.412-.837.337-.28.521-.75.408-1.045-.131-.34.092-.536.609-.536.644 0 .767-.188.591-.9-.123-.495-.12-.675.006-.4.452.985 1.063.502.831-.658-.195-.977-.118-1.128.495-.967.502.131.82-.099 1.028-.743.166-.512.348-1.067.405-1.232.057-.165.126-.48.154-.7.027-.22.286-.4.575-.4.413 0 .52-1.334.5-6.2-.014-3.41-.16-6.2-.325-6.2s-.3-.191-.3-.424c0-.233.18-.312.4-.176.651.402.455-.271-.223-.767-.393-.287-.646-1.154-.685-2.344-.034-1.039-.193-1.889-.355-1.889-.161 0-.348-.855-.415-1.9s-.295-1.842-.506-1.77c-.54.181-.98-1.155-.735-2.23.113-.495.027-.9-.192-.9s-.475-.521-.568-1.159c-.123-.838-.025-1.102.354-.957.289.111.525.002.525-.241 0-.244.191-.443.424-.443.233 0 .295.208.138.462-.168.271-.111.354.139.199.233-.144.335-.667.227-1.161-.149-.679-.1-.761.201-.335.339.481.493.47 1.036-.073.371-.371 1.047-.564 1.615-.461.629.114 1.107-.057 1.344-.481.453-.809 4.44-.854 4.936-.056.172.278.544.53.827.56.282.029.75.074 1.04.1.34.03.437.33.272.848-.169.533-.044.883.373 1.043.346.132.628.691.628 1.241 0 .635.182.93.5.808.36-.138.494.355.478 1.757-.02 1.714.17 2.091 1.022 2.029.11-.008.142 2.869.071 6.394-.09 4.49-.001 6.33.3 6.144.236-.146.429-.075.429.158 0 .233-.138.424-.306.424-.168 0-.361 1.115-.428 2.477-.077 1.547-.336 2.635-.689 2.9-.399.298-.533 1.092-.452 2.68.094 1.84.008 2.215-.467 2.033-.474-.182-.534.077-.322 1.398.228 1.427.158 1.647-.591 1.842-.53.139-.766.438-.629.796.122.316-.035 1.067-.348 1.67-.697 1.344-.708 1.53-.068 1.169.4-.226.4-.175 0 .256-.275.297-.5.844-.5 1.216 0 .373-.27.781-.6.908-.33.126-.6.596-.6 1.042 0 .447-.184.813-.408.813-.224 0-.326.45-.226 1 .144.794.016 1-.619 1-.62 0-.743.182-.546.802.171.54.042.883-.396 1.052-.358.137-.556.496-.441.798.116.301-.034.548-.334.548-.299 0-.652.279-.783.621-.136.356-.069.516.158.376.217-.134.395-.075.395.133 0 .207-.383.477-.852.599-.521.137-.768.441-.637.782.121.316-.292.978-.948 1.52-.64.528-1.163 1.11-1.163 1.293 0 .183-.262.595-.583.916-.321.321-.481.85-.355 1.176.163.425.04.521-.434.339-.363-.139-.611-.096-.55.096.165.522-2.357 2.949-3.066 2.949-.338 0-2.324 1.715-4.413 3.811-3.468 3.479-4.463 4.647-3.404 3.992.237-.146.288.037.127.456-.165.431-.33.516-.429.221-.306-.918-.985-.474-.795.52.152.794.028 1-.6 1-.584 0-.739.202-.59.77.149.57.042.709-.413.534-.494-.189-.562-.026-.348.828.2.794.063 1.239-.54 1.755-.882.755-1.093 2.113-.327 2.113.373 0 .373.107 0 .48-.956.956-.594 4.723.557 5.789.832.771.942 1.074.56 1.535-.528.636.47 1.992 1.473 2 .288.003.494.093.459.2-.187.571 1.007 2.006 1.588 1.909.387-.065.846.271 1.074.787.219.495.632.9.916.9.285 0 .622.27.748.6.127.33.402.6.611.6.21 0 .246-.225.081-.5-.212-.352-.104-.341.363.038.366.296.625.746.577 1-.048.254.363.489.913.523.55.033 1.326.078 1.724.1.398.021.622.202.499.402-.131.211 2.215.375 5.594.391l5.819.027-.093-1.802c-.079-1.51-.243-1.839-1.018-2.034-.509-.127-.925-.411-.925-.631 0-.22-.27-.296-.6-.169-.878.337-1.783-.123-1.532-.778.196-.51-1.085-.832-2.398-.604-.181.031-.198-.156-.037-.416.203-.329.03-.404-.571-.247-.475.124-.777.085-.671-.086.21-.339-1.103-2.014-1.577-2.014-.592 0-2.614-2.508-2.614-3.242 0-.417-.225-.758-.5-.758-.647 0-.565-2.999.104-3.805.267-.322.383-.851.258-1.177-.125-.326-.027-.716.217-.867.269-.166.332-.092.159.187-.157.254-.185.462-.062.462.278 0 1.788-1.491 1.924-1.9.055-.165.257-.248.449-.184s.244-.158.114-.495c-.129-.336-.106-.592.051-.569.797.119 1.276-.104 1.186-.552-.055-.275.125-.455.4-.4.275.055.5-.08.5-.3 0-.22.291-.4.647-.4.446 0 .582-.244.441-.786-.113-.433-.089-.771.053-.753.833.108 1.27-.119 1.017-.529-.196-.317-.069-.383.397-.205.409.157.587.103.442-.132-.135-.218.22-.573.789-.79.569-.216 1.139-.666 1.267-.999.128-.333.404-.606.613-.606.21 0 .253.208.096.462-.181.293-.109.353.196.164.371-.229.362-.444-.039-.938-.292-.361-.32-.522-.064-.369.264.158.544-.073.67-.553.119-.454.599-.926 1.068-1.048.469-.123.783-.424.698-.671-.193-.563 1.139-1.873 1.539-1.514.164.147.195-.02.07-.371-.132-.371.092-.868.536-1.188.42-.303.764-.967.764-1.475 0-.508.269-1.027.598-1.153.328-.127.498-.391.376-.588-.122-.197.059-.358.402-.358s.603-.135.577-.3c-.151-.954.106-2.1.471-2.1.233 0 .294.225.135.5-.158.275-.134.36.054.19.64-.583.626-1.88-.018-1.633-.327.126-.595.019-.595-.238 0-.256.148-.375.329-.263.527.326 1.675-1.281 1.409-1.973-.163-.425.036-.703.61-.854.5-.13.852-.543.852-.999 0-.486-.173-.67-.462-.492-.317.196-.35.11-.106-.276.196-.309.359-.682.362-.829.003-.146.17-.416.37-.6.216-.198.231-.089.036.267s-.18.465.036.267c.393-.36.438-.542.514-2.067.027-.55.241-1 .474-1 .233 0 .295.208.138.462-.166.268-.111.354.131.204.229-.141.392-1.267.362-2.5-.03-1.234.097-2.451.283-2.704.209-.286.249-.187.104.259-.136.422-.069.619.163.476.217-.134.395-.934.395-1.778 0-.993.211-1.614.599-1.763.544-.209.595-1.094.187-3.267-.13-.696.496-2.186.832-1.978.502.311.394-17.913-.11-18.521-.233-.281-.442-1.676-.466-3.1-.023-1.424-.202-2.574-.397-2.555-.6.056-.995-.931-.845-2.112.078-.618-.025-1.123-.229-1.123-.204 0-.371-.41-.371-.911 0-.501-.368-1.226-.817-1.611-.449-.385-.69-.905-.534-1.157.188-.305.054-.369-.404-.194-.446.171-.591.11-.415-.176.15-.242.114-.555-.079-.696-.665-.483-1.95-2.192-1.41-1.875.361.212.313-.031-.143-.727-.636-.97-1.739-1.128-1.143-.164.162.262.082.319-.2.145-.257-.159-.346-.487-.196-.73.173-.28.038-.35-.373-.192-.453.174-.579.075-.423-.332.176-.459-.195-.58-1.777-.58-1.409 0-2.068-.177-2.231-.6-.126-.33-.596-.6-1.042-.6-.456 0-.813.264-.813.6 0 .506-.702.72-1.855.566-.141-.019-.408.206-.594.5-.253.399-.34.408-.345.034-.008-.694-1.801-.629-2.395.087-.268.323-.605.572-.749.553-.868-.115-1.32.133-1.132.621.163.425-.069.516-.958.376-1.104-.174-1.397.115-1.209 1.193.031.182-.307.215-.753.073-.653-.207-.811-.078-.816.67-.005.764-.081.822-.431.327-.319-.452-.474-.476-.627-.1-.111.275-.458.5-.769.5-.508 0-.639-.26-.533-1.055.019-.141-.188-.393-.46-.561-.272-.168-.512-.908-.534-1.645-.029-.983-.208-1.312-.671-1.237-.488.078-.591-.171-.455-1.1.1-.681-.004-1.202-.241-1.202-.229 0-.475-.405-.545-.9-.081-.567-.367-.861-.773-.795-.486.079-.6-.137-.459-.873.137-.719-.147-1.305-1.074-2.211-.721-.705-1.139-1.431-.976-1.695.184-.298.072-.38-.318-.23-.463.177-.559.002-.415-.752.192-1.007-.948-2.293-1.648-1.86-.19.117-.126-.196.142-.696.411-.77.394-.874-.115-.679-.44.169-.547.025-.4-.539.137-.526-.004-.77-.445-.77-.356 0-.647-.205-.647-.456 0-.769-1.331-1.518-2.721-1.531l-1.321-.013.079 3c.044 1.65.244 3 .445 3s.23.225.065.5c-.235.391-.173.397.286.026.5-.405.586-.197.577 1.4-.006 1.198.156 1.843.449 1.788.282-.053.373.241.237.762-.161.614-.083.763.281.538.393-.242.406-.129.06.516-.35.654-.314.899.17 1.17.355.198.634.955.666 1.803.051 1.355.732 2.156 1.657 1.951.181-.041.214.114.072.343-.141.229-.409.322-.595.208-.185-.115-.295.076-.244.425.051.349.326.778.611.954.285.176.533 1.017.552 1.868.034 1.525.891 2.708 1.631 2.251.202-.125.236-.016.077.242-.159.257-.441.374-.627.26-.185-.115-.295.076-.244.425.051.349.305.765.564.925.661.408.901 2.845.28 2.845-.268 0-.901-.54-1.407-1.2-1.081-1.41-4.492-1.774-5.37-.573-.372.509-1.381.63-5.344.642-2.827.008-4.886.175-4.886.396 0 .21.168.279.372.152.205-.126.458-.091.563.078.105.169-1.539.27-3.653.224-2.286-.05-4.053.091-4.362.348-.308.255-.52.272-.52.042 0-.696-4.782-.621-5.051.079-.204.533-2.007.612-13.979.612-12.528 0-13.723-.058-13.495-.651.219-.57-.078-.629-2.397-.482-3.156.201-3.255.279-3.268 2.555-.007 1.148-.187 1.776-.51 1.777-.275 0-.5-.269-.5-.599 0-.33-.186-.6-.414-.6-.286 0-.286.24 0 .774.608 1.136.504 1.498-.173.602-.323-.427-.593-1.181-.6-1.676-.008-.519-.262-.9-.6-.9-.361 0-.498-.234-.355-.607.142-.369-.176-.928-.813-1.429-.607-.478-1.045-1.224-1.045-1.78 0-.688-.17-.894-.6-.729-.416.16-.6-.027-.6-.612 0-.464-.18-.843-.4-.843-.22 0-.4-.351-.4-.78 0-.429-.255-.924-.568-1.1-.312-.176-.627-.582-.7-.902-.072-.32-.537-1.003-1.032-1.518a3.506 3.506 0 0 1-.947-3c.026-.165-.335-.3-.802-.3-.747 0-.783-.081-.3-.677.302-.372.342-.552.088-.4-.45.269-1.552-2.044-1.16-2.435.101-.101-.08-.446-.402-.768-.321-.321-.474-.764-.338-.983.135-.219-.118-.737-.563-1.152-.507-.473-.73-1.057-.597-1.565.134-.511-.017-.898-.408-1.048-.341-.131-.522-.496-.401-.81.121-.315-.026-.874-.325-1.244-.376-.463-.39-.578-.045-.371.275.165.5.11.5-.123 0-.233-.225-.427-.5-.43-.343-.004-.318-.122.081-.374.319-.202.769-.255 1-.117.23.138.155-.099-.168-.526-.323-.427-.429-.644-.237-.48.193.163.621.073.952-.2.48-.396.636-.395.77.003.236.7.902.626.902-.1 0-.366.373-.6.957-.6.527 0 1.06-.267 1.185-.593a.635.635 0 0 1 .833-.361c.332.127.892-.056 1.243-.407.541-.541 2.32-.884 3.512-.676.181.031.215-.128.076-.353-.142-.229.11-.41.57-.41.453 0 .824.18.824.4 0 .565 1.336.497 1.972-.1.437-.411.485-.304.272.6-.236 1.002-.158 1.1.872 1.1.622 0 1.48.283 1.908.63.427.346.551.515.276.376-.788-.399-.583.345.305 1.105 1 .856 1.093.856 1.319-.011.174-.667.185-.667.23 0 .025.385.226.7.446.7s.4.27.4.6c0 .373.378.6 1 .6.55 0 1 .18 1 .4 0 .22.255.4.567.4.311 0 .634.204.718.454.083.25 1.195.531 2.472.624 1.838.135 2.255.062 2.005-.354-.251-.416-.194-.426.277-.045.506.409.602.213.653-1.343.063-1.952-.757-3.293-2.149-3.51-.426-.067-.695-.388-.63-.751.103-.581-.741-1.302-1.713-1.462-.22-.036-.349-.314-.287-.618.128-.63-1.259-1.515-1.694-1.081-.157.157-.249.106-.205-.114.221-1.094-.029-1.995-.394-1.419-.202.319-.26.769-.129 1 .133.235.078.273-.127.086-.361-.331-.418-.514-.514-1.667-.027-.33-.289-.6-.582-.6s-.517-.401-.5-.893c.018-.491-.193-.896-.468-.9-.275-.004-.54-.187-.59-.407-.157-.702-1.269-1.8-1.823-1.8-.294 0-.423-.18-.287-.4.136-.22.057-.4-.176-.4-.233 0-.424-.27-.424-.6 0-.33-.27-.6-.6-.6-.373 0-.6-.378-.6-1 0-1.052-.573-1.35-.963-.5-.126.275-.133.106-.014-.376.153-.622-.03-1.007-.635-1.33-.49-.263-.758-.697-.632-1.025.121-.313.045-.569-.169-.569-.213 0-.387-.525-.387-1.167 0-.641-.225-1.257-.5-1.368-.4-.161-.4-.208 0-.233.709-.045.623-2.01-.1-2.287-.33-.127-.6-.561-.6-.964 0-1.054-.728-1.355-1.838-.761-.573.307-.962.875-.962 1.405 0 .489-.27.993-.6 1.12-.33.126-.6.426-.6.666 0 .24.225.307.5.148.275-.158.069.186-.459.765-.767.843-.863 1.167-.48 1.629.348.419.356.651.031.852-.246.152-.356.513-.244.803.111.29-.147.929-.573 1.421-.932 1.075-.959 1.217-.175.916.385-.148.6.008.6.436 0 .366-.168.563-.372.436a.435.435 0 0 0-.598.135c-.124.2.044.467.372.594.806.309.804 2.889-.002 3.199-.33.126-.6.426-.6.666 0 .24.208.308.462.151.288-.178.353-.11.172.183-.159.257-.455.366-.656.241-.414-.256-1.633.808-2.307 2.014-.246.44-.452.575-.459.3-.015-.604-1.212-.68-1.212-.076 0 .233.208.295.462.138.275-.171.353-.111.193.149-.147.238-.719.352-1.27.252-.656-.119-1.084.029-1.237.428-.144.376-.741.609-1.557.609-.729 0-1.392.203-1.475.451-.082.247-.592.494-1.133.549l-1.507.149c-.288.028-.412.231-.276.451.147.239-.339.4-1.205.4-.799 0-1.706.254-2.017.564-.31.311-.91.474-1.334.363-.452-.118-1.097.126-1.56.589-.555.555-1.123.727-1.903.578-.862-.165-1.062-.081-.888.371.172.45-.042.545-.929.415-1.685-.247-3.281.237-3.021.916.143.373.018.487-.368.339-.322-.124-.887.021-1.257.32-.463.376-.578.39-.371.045.165-.275.11-.5-.123-.5-.233 0-.424.3-.424.667 0 .366-.118.548-.263.403-.145-.145-.505-.063-.8.182-.332.275-.537.292-.537.044 0-.222-.332-.49-.739-.596-.574-.15-.697-.471-.554-1.446.178-1.212-.117-1.499-1.307-1.273-.22.042-.189-.139.069-.401.555-.565.236-1.692-.373-1.316-.247.153-.301.067-.13-.209.159-.257.469-.357.688-.221.224.138.344-.079.273-.494-.102-.595.089-.715.973-.611.803.094 1.1-.048 1.1-.524 0-.391-.185-.538-.462-.367-.293.181-.353.109-.164-.196.231-.374.429-.372.887.008.505.419.547.322.298-.68-.267-1.07-.233-1.122.392-.606.601.495.758.459 1.289-.3.616-.879 1.644-1.247 1.122-.402-.181.293-.109.353.196.164.372-.23.373-.427.005-.871-.383-.461-.356-.527.139-.337.374.143 1.111-.248 1.88-1 .695-.68 1.415-1.143 1.599-1.03.335.207 1.003-.92.883-1.488-.035-.165.071-.269.236-.23.481.112 2.5-.966 2.5-1.334 0-.185.191-.336.424-.336.233 0 .295.208.138.462-.181.293-.109.353.196.164.372-.23.373-.427.005-.871-.382-.46-.357-.528.127-.342.362.139 1.104-.268 1.852-1.017.687-.687 1.431-1.136 1.654-.999.222.138.426.06.454-.173.028-.233.072-.649.1-.924a.643.643 0 0 1 .55-.55c.275-.027.789-.072 1.143-.1.388-.03.554-.28.42-.63-.148-.387-.03-.505.357-.357.319.123.58.023.58-.22 0-.244.191-.443.424-.443.233 0 .295.208.138.462-.181.293-.109.353.196.164.372-.23.373-.427.005-.871-.378-.455-.361-.531.08-.368.307.112 1.163-.331 1.905-.985.741-.655 1.506-1.092 1.7-.973.193.12.352.028.352-.205 0-.233.27-.424.6-.424.33 0 .6-.354.6-.787 0-.572.183-.718.669-.531.494.189.607.093.43-.367-.18-.47-.043-.573.552-.417.88.229 2.551-1.247 2.149-1.899-.137-.221.028-.286.379-.152.419.161.631-.003.653-.504.017-.421.119-.526.233-.243.111.275.361.5.556.5.195 0 .269-.225.166-.5-.104-.275.36-.811 1.031-1.192.671-.381 1.11-.516.977-.3-.133.216.029.392.362.392.332 0 .769-.296.971-.658.301-.537.966-.643 3.653-.578 2.21.053 3.496-.092 3.929-.442.479-.389.567-.394.343-.022-.202.337-.024.5.547.5.466 0 .748.161.626.358-.27.436.697.842 2.007.842.532 0 .967.2.967.445 0 .269.483.375 1.221.267.912-.134 1.325.014 1.631.585.225.421.654.671.953.556.668-.256 3.528 1.081 3.14 1.468-.277.278.403.433 1.355.309.275-.036.5.207.5.54 0 .347.233.516.547.395.301-.115 1.097.34 1.769 1.013 1.215 1.214 2.41 1.686 1.831.722-.204-.34-.084-.324.376.049.372.302.677.797.677 1.1 0 .303.27.551.6.551.33 0 .6.142.6.315 0 .173.358.342.797.375 1.395.105 2.625 1.159 1.65 1.414-1.059.277-1.116 7.724-.064 8.287.475.254.604.927.547 2.847-.074 2.496.62 3.888 1.627 3.265.202-.125.236-.016.077.242-.159.257-.441.374-.627.26-.185-.115-.292.097-.237.471.055.375.334.759.621.854.347.116.414-.01.201-.378-.176-.304-.167-.413.02-.242.188.17.367.8.399 1.4.081 1.52.993 3.735 1.428 3.466.372-.23.506.303.382 1.524-.04.393.197.7.541.7.38 0 .526.228.383.6-.146.38.005.6.412.6.354 0 .643.18.643.4 0 .22.264.4.587.4.384 0 .499.231.333.664-.202.527-.076.618.612.438.477-.125.985-.036 1.129.197.168.272.06.307-.299.099-.333-.193-.426-.178-.229.038.345.377.462.409 1.967.546.495.044.675.172.4.283-.982.396-.477.935.876.935.757 0 1.484.174 1.615.386.132.212 1.03.351 1.996.308 1.345-.06 1.662-.194 1.348-.573-.317-.382-.074-.451 1.071-.304 1.202.154 1.438.076 1.251-.414-.158-.411.018-.603.552-.603.431 0 1.009-.36 1.284-.8.535-.856 1.349-1.138.866-.3-.167.29-.135.36.077.167.2-.184.37-.454.378-.6.027-.491 1.174-2.067 1.506-2.067.18 0 .198.225.039.5-.167.29-.135.36.077.167.2-.184.37-.454.378-.6.027-.491 1.174-2.067 1.506-2.067.18 0 .199.208.042.462s-.115.356.093.228c.208-.129.406-.921.44-1.762.034-.84-.03-1.312-.143-1.049-.157.368-.442.372-1.222.016-.849-.386-1.101-.35-1.518.221-.275.376-.725.684-.999.684s-.4.258-.279.573c.156.406-.017.527-.598.415-.561-.108-.884.093-1.027.638-.153.585-.421.729-1.009.542-.463-.147-.93-.043-1.109.247-.179.29-1.16.508-2.328.517-1.11.009-1.929.161-1.82.338.109.176-.081.214-.422.083-.342-.131-.621-.477-.621-.769 0-.292-.495-.588-1.1-.657-.619-.072-1.056-.346-1-.627.055-.275-.125-.455-.4-.4-.289.058-.446-.213-.373-.643.072-.415-.25-1.008-.726-1.342-.47-.329-.758-.849-.64-1.157.117-.307.083-.558-.077-.558-.161 0-.528-.379-.817-.842-.289-.463-.355-.736-.147-.607.209.129.38-.198.38-.727 0-.649-.178-.892-.548-.75-.301.115-.431.399-.288.63.143.231.097.32-.102.197-.671-.412-.183-6.301.522-6.301.485 0 .571-.304.395-1.393-.133-.815-.046-1.504.209-1.661.279-.173.319-.081.112.254-.217.351-.168.427.149.232.26-.161.422-.594.362-.962-.072-.436.123-.631.559-.559.368.06.801-.102.962-.362.195-.317.119-.366-.232-.149-.357.22-.427.168-.222-.165.166-.268.398-.393.515-.276.117.117.57.021 1.008-.213.574-.307.72-.303.524.014-.154.248 0 .44.351.44.343 0 .624-.27.624-.6 0-.688 2.246-.862 2.47-.191.075.225.675.505 1.333.623.658.118 1.257.384 1.33.592.074.207.487.376.919.376.433 0 1.215.462 1.738 1.027.523.565 1.1 1.015 1.281 1 .181-.015.351.153.379.373.114.916.178.975.501.466.257-.406.39-.334.556.301.12.459.057.735-.14.613s-.247.068-.111.422.455.564.71.466c.312-.119.411.265.305 1.177-.096.821.016 1.355.285 1.355.244 0 .444.281.444.624 0 .343.178.513.395.379.223-.138.297.014.169.347-.182.475.136.577 1.609.521 1.284-.05 1.778-.221 1.644-.571-.115-.3.137-.5.629-.5.869 0 .997-4.236.168-5.577-.208-.336-.185-.452.058-.302.249.154.407-1.084.425-3.338.016-1.971-.129-3.583-.322-3.583-.192 0-.246.27-.12.6.127.33.031.6-.212.6-.361 0-.687-2.457-.49-3.7.026-.165-.133-.3-.353-.3-.22 0-.4-.27-.4-.6 0-.33-.186-.6-.414-.6-.279 0-.271.294.023.9.43.888.425.887-.384-.042-.452-.518-.721-1.103-.599-1.3.122-.197-.049-.358-.379-.358s-.728-.208-.885-.462c-.177-.286-.11-.353.176-.176.254.157.462.095.462-.138s-.255-.424-.567-.424c-.674 0-.975-.723-.715-1.723.106-.41.423-.632.735-.512.301.115.547.036.547-.178 0-.213-.225-.39-.5-.393-.325-.004-.354-.109-.083-.3.667-.471.652-2.492-.02-2.751-.329-.126-.597-.659-.597-1.186 0-.642-.23-.959-.7-.964-.385-.004-1.124-.454-1.642-1-.518-.546-1.148-.99-1.4-.987-.252.003-.188.181.142.394.361.233.41.39.124.394a.932.932 0 0 1-.724-.394c-.136-.22-.699-.4-1.252-.4s-1.275-.27-1.605-.6c-.726-.726-1.509-.798-1.09-.1.214.355.11.345-.36-.035-.71-.576-3.093-.293-3.093.367 0 .202-.72.368-1.6.368-1.436 0-2.095.456-1.3.901.165.092.044.101-.268.02-.312-.082-.715.083-.894.365-.254.4-.327.403-.332.014-.003-.275-.186-.5-.406-.5-.22 0-.4.199-.4.442 0 .244-.435.785-.967 1.203-.867.683-.965 1.06-.949 3.658.026 4.305.051 4.212-1.084 3.995-.706-.135-1-.015-1 .406 0 .329-.27.822-.6 1.096-.415.344-.6.359-.6.049a.44.44 0 0 1 .429-.449c.235 0 .159-.269-.171-.599-.329-.329-.88-.491-1.225-.358-.393.15-.731-.036-.907-.501-.344-.907-1.135-1.742-1.651-1.742-.211 0-.668-.435-1.016-.966-.44-.672-.88-.901-1.446-.753-.644.168-.813.02-.813-.711 0-.899-.015-.903-.606-.146-.333.427-.582.596-.552.376.156-1.178-.115-1.8-.786-1.8-.409 0-1.082-.45-1.495-1-.698-.929-1.692-1.459-1.178-.628.126.205.047.486-.176.624-.352.217-.597-.579-.457-1.489.025-.161-.404-.406-.952-.543-.549-.138-.998-.411-.998-.607 0-.197-.559-.357-1.243-.357-.908 0-1.184-.153-1.025-.567.232-.604-.505-1.058-2.132-1.313-.55-.086-1.18-.373-1.4-.638-.22-.265-.76-.544-1.2-.62-.44-.076-1.06-.346-1.377-.6-.464-.371-.511-.344-.241.138.273.488.235.507-.203.1-.297-.275-1.217-.5-2.046-.5-1.176 0-1.457-.132-1.278-.6.19-.493-.205-.6-2.212-.6-2.077 0-2.443.107-2.443.713m79.6 2.873c0 .228-.675.416-1.5.419-1.944.008-3.349.392-3.072.84.203.329-.383.527-1.158.392-.182-.031-.215.352-.074.853.141.5.11.73-.07.51-.689-.845-1.342-.537-2.127 1.002-.448.879-.964 1.598-1.146 1.598-.182 0-.348.579-.368 1.288-.02.708-.317 1.493-.661 1.744-.67.49-.903 3.768-.267 3.768.197 0 .471.295.609.657.221.573.166.586-.432.1-.605-.493-.652-.473-.409.176.151.403.275.818.275.923 0 .105.18.08.4-.056.371-.229.581.33.431 1.15-.036.193.214.657.553 1.033.34.375.505.794.368.932-.381.381 2.331 3.085 3.093 3.085.368 0 .773.27.9.6.126.33.686.6 1.242.6.557 0 1.013.186 1.013.414 0 .273.289.259.848-.04.596-.319.768-.323.577-.014-.186.3.436.44 1.951.44 1.223 0 2.224-.18 2.224-.4 0-.22.255-.4.567-.4.311 0 .657-.225.768-.5.161-.4.208-.4.233 0 .045.703 1.209.625 1.487-.1.127-.33.682-.6 1.234-.6.807 0 .963-.157.795-.8-.115-.439-.018-.917.215-1.061.264-.163.314-.05.133.299-.16.309-.035.25.278-.132.313-.381.686-.576.83-.433.143.143.26-.108.26-.557 0-.45.272-1.044.605-1.32.493-.409.512-.617.1-1.126-.409-.505-.407-.564.011-.314.411.248.496-.665.417-4.523-.053-2.658-.24-4.833-.415-4.833s-.318-.304-.318-.676c0-.609-.053-.604-.533.052-.573.784-.551.824-.762-1.366-.042-.435-.317-.883-.611-.996-.317-.121-.425-.026-.266.232.149.24-.183.14-.737-.223s-1.095-.995-1.202-1.404c-.16-.612-.551-.733-2.209-.681-1.108.034-1.984-.096-1.947-.289.037-.193-.428-.424-1.033-.514-.605-.089-1.1.024-1.1.251m-.1 4.69c-.385.1-1.015.1-1.4 0-.385-.101-.07-.183.7-.183s1.085.082.7.183m-3.526 6.518c.054 4.176-.017 4.764-.556 4.558-.34-.131-.618-.649-.618-1.152 0-.503-.225-1.001-.5-1.106-.67-.257-.582-4.673.102-5.095.275-.17.384-.499.241-.73-.195-.315.583-1.12 1.213-1.257.031-.007.084 2.145.118 4.782m4.94-2.4c.137.524.016.806-.347.806-.346 0-.528-.369-.478-.971.092-1.11.514-1.025.825.165M266.2 134c-.136.22-.102.4.076.4.531-.001.266 4.865-.284 5.205-.272.168-.371.506-.22.75.156.252.011.445-.334.445-.709 0-1.544-1.346-1.124-1.811.157-.174-.021-.207-.395-.072-.642.229-.642.164 0-1.127.374-.754.906-1.375 1.181-1.38.28-.006.5-.509.5-1.143 0-.624.12-1.254.267-1.4.403-.404.613-.32.333.133m-5.232 8.4c.153 0 .144-.225-.021-.5-.229-.381-.149-.377.335.015.873.707.484 2.053-.519 1.791-.422-.11-1.066.046-1.431.347-.599.494-.618.462-.197-.327.256-.48.471-1.29.478-1.8.011-.855.053-.872.544-.226.292.385.657.7.811.7m-125.41 23.349c.251.302.343.842.206 1.2-.171.446-.033.651.44.651s.629.231.496.737c-.117.449.109.926.575 1.217.518.323.687.735.52 1.263-.137.431-.072.783.145.783.216 0 .462-.207.547-.46.084-.253.153.194.153.994 0 .942-.123 1.28-.35.96-.278-.391-.393-.39-.554.006-.111.275-.558.5-.993.5-.435 0-.678-.181-.541-.403.278-.45-.708-1.597-1.373-1.597-.261 0-.429-1.018-.429-2.6 0-1.467.174-2.6.4-2.6.22 0 .4-.191.4-.424 0-.233-.18-.312-.4-.176-.22.136-.4.057-.4-.176 0-.595.616-.528 1.158.125m21.769 1.296c-.21.548.032.623 1.613.497 1.305-.104 1.86.002 1.86.355 0 .277.135.458.3.403.165-.055.3.007.3.139 0 .131.197.491.438.8.791 1.014.978 1.942.342 1.698-.755-.29-.825 3.839-.08 4.642.401.431.399.481-.01.25-.28-.159-.484-.14-.453.041.325 1.869-.12 3.639-1.037 4.13-.55.294-1 .884-1 1.31 0 .519-.195.701-.589.549-.325-.124-.788.082-1.031.458-.411.637-.426.636-.223-.017.12-.385.044-.7-.17-.7a.395.395 0 0 0-.387.4c0 .22-.461.4-1.024.4-.702 0-.935.157-.741.5.226.4.175.4-.256 0-.297-.275-1.493-.5-2.659-.5-1.166 0-2.12-.18-2.12-.4 0-.22-.281-.4-.624-.4-.343 0-.513.178-.379.395.139.225-.017.295-.361.163-.333-.127-.712-.566-.841-.975-.158-.497-.46-.658-.915-.488-.615.23-.622.183-.08-.497.33-.413.394-.628.142-.477-.663.397-.942-.642-.942-3.511 0-1.875.154-2.584.6-2.755.33-.126.6-.686.6-1.242 0-.557.174-1.013.387-1.013.214 0 .291-.252.173-.56-.118-.307.006-.695.275-.861.312-.194.386-.136.203.159-.157.254-.11.462.105.462s.459-.206.543-.459c.084-.252.684-.477 1.334-.5.649-.022 1.146-.233 1.104-.468-.042-.241.738-.467 1.8-.521 1.032-.052 1.936-.265 2.009-.473.074-.209.369-.379.658-.379.288 0 .627-.27.754-.6.126-.33.32-.6.43-.6.11 0 .089.29-.048.645m5.473 10.331c0 .537-.18 1.088-.4 1.224-.233.144-.4-.263-.4-.976 0-.673.18-1.224.4-1.224.22 0 .4.439.4.976m160.171 11.195c-.147.587-.344.989-.439.895-.094-.094-.051-.651.097-1.237.147-.587.344-.989.439-.895.094.094.051.651-.097 1.237M233.6 188.4c0 .22-.27.4-.6.4-.33 0-.6-.18-.6-.4 0-.22.27-.4.6-.4.33 0 .6.18.6.4m12.876 2.501c-.079.656.126 1.172.562 1.416.451.253.673.845.648 1.725-.021.737.127 1.442.328 1.567.201.124.421.578.487 1.008.067.431.28 1.036.472 1.345.24.384.205.472-.111.276-.683-.422-.561.006.227.794.425.424.642 1.148.565 1.883-.069.656.079 1.32.329 1.474.25.155.484 1.018.519 1.918.041 1.012.225 1.542.482 1.388.229-.137.176.048-.118.41-.379.467-.481 1.508-.352 3.577.101 1.605.101 2.693.001 2.418-.1-.275-.366-.5-.591-.5-.225 0-.306.27-.179.6.14.365 0 .6-.358.6-.323 0-.609.18-.637.4-.028.22-.072.625-.1.9a.64.64 0 0 1-.55.55c-.275.028-.68.072-.9.1-.22.028-.403.455-.406.95-.005.745-.079.797-.431.3-.319-.452-.474-.476-.627-.1-.111.275-.503.503-.869.506-.577.005-.586.059-.067.394.33.213.411.391.18.394-.231.003-.612-.186-.846-.42-.301-.301-.592-.271-.995.1-.852.787-2.462 1.649-2.157 1.156.146-.237.075-.43-.158-.43-.233 0-.424.18-.424.4 0 .22-.191.4-.424.4-.233 0-.319-.168-.192-.373.127-.206-.313-.358-.977-.34-.664.019-1.207.198-1.207.397 0 .2.168.26.372.133.205-.126.461-.087.569.088.109.175-1.033.313-2.536.307-1.504-.007-2.705-.165-2.669-.352.107-.567-2.603-.701-3.269-.163-.381.309-.515.327-.347.046.188-.313-.221-.445-1.299-.422-.988.022-1.478.192-1.32.457.278.464-1.148-.568-1.554-1.125-.335-.46-2.85-.744-2.57-.289.12.193-.041.452-.359.574-.385.147-.503.028-.355-.358.159-.413-.071-.58-.797-.58-.56 0-1.137-.192-1.282-.426-.145-.234-.74-.395-1.324-.358-1.95.126-2.909-.013-2.678-.387.388-.628-1.372-.934-2.078-.362-.554.449-.604.445-.318-.03.26-.432.145-.512-.498-.344-.462.121-.917.008-1.017-.252-.099-.259-.696-.447-1.326-.416-.694.033-1.235-.183-1.373-.549-.281-.747-1.97-1.066-1.978-.373-.005.374-.089.366-.34-.03-.184-.289-.666-.575-1.072-.635-.406-.059-.807-.362-.891-.673-.126-.468-.087-.472.229-.022.275.392.458.416.663.085.181-.293.879-.368 1.95-.209.917.137 1.534.115 1.37-.048-.517-.519.492-1.298 1.379-1.065.691.18.801.088.581-.486-.194-.507-.114-.648.284-.496.305.118.784.003 1.063-.255.395-.365.438-.347.194.081-.247.434-.009.515 1.13.382.91-.106 1.513.013 1.632.324.136.355 1.646.492 5.419.492 3.145 0 5.138-.149 4.999-.374-.127-.206.298-.374.946-.374.833 0 1.237-.229 1.382-.785.14-.534.466-.735 1.024-.627.615.118.757-.001.573-.481-.167-.435-.09-.542.241-.338.306.189 1.281-.527 2.634-1.934 1.181-1.229 2.443-2.235 2.805-2.235.362 0 .547-.18.411-.4-.156-.252.805-.4 2.603-.4 1.567 0 3.219-.198 3.672-.44.452-.242.716-.269.587-.06-.129.208.331.395 1.022.415.691.019 1.407.305 1.591.633.511.913 2.725.724 2.725-.232 0-.453-.179-.653-.44-.491-.309.191-.305.019.014-.577.371-.693.342-.848-.16-.848-.338 0-.569-.225-.514-.5.055-.275-.144-.449-.442-.386-.617.13-1.732-.67-1.488-1.066.089-.144-.273-.466-.805-.717-.531-.251-.865-.293-.742-.094.123.2.019.363-.231.363-.298 0-.364-.415-.192-1.2.229-1.041.167-1.166-.468-.946-.642.222-.633.175.068-.387.44-.353.644-.647.454-.654-.19-.007-.055-.457.3-.999s.646-1.333.646-1.757c0-.424.27-.875.6-1.002.33-.126.6-.611.6-1.076 0-.5.205-.777.5-.677.275.092.444.632.376 1.199M223.629 227.6c.424 0 .771.189.771.42 0 .276.231.291.674.043.718-.402 2.063.125 2.646 1.037.176.275.761.5 1.3.5s.983-.225.986-.5c.005-.358.106-.342.359.057.207.327.701.467 1.194.338.554-.145.841-.032.841.33 0 .341.266.466.7.33.629-.198.625-.159-.04.386-.407.333-.646.759-.53.946.116.187-.271.334-.86.326-.599-.007-1.032.191-.983.449.048.254-.177.564-.5.688-.323.123-.587.051-.587-.163 0-.591-1.069-.461-1.743.213-.33.33-.992.6-1.471.6-.555 0-.798.191-.67.525.147.383-.127.476-1.014.346-.879-.129-1.133-.045-.917.305.212.342.053.33-.543-.043-.771-.481-.838-.865-.796-4.529.026-2.202.129-3.689.23-3.304.1.385.529.7.953.7" fill="#8caca4"/><path d="M186.951 78.079c-.166.269-.092.332.187.159.254-.157.462-.095.462.138s.18.424.4.424c.612 0 .476-.685-.187-.94-.323-.124-.711-.025-.862.219M210.832 89.1c.019.422.112.501.234.198.111-.277.367-.401.568-.277.201.124.366.036.366-.197s-.27-.424-.6-.424c-.33 0-.586.315-.568.7m-54.013 8.08c-.319.202-.694.297-.833.211s-.253.091-.253.392c0 .446.174.434.934-.063.513-.337.933-.681.933-.766 0-.223-.131-.185-.781.226M271.2 99.8c.517.55 1.002 1 1.079 1 .077 0-.155-.45-.516-1-.36-.55-.846-1-1.079-1-.233 0-.001.45.516 1m-145.233 16.44c-.751.905-.811 1.752-.105 1.481.321-.123.498-.449.392-.724-.105-.275.01-.701.257-.948s.345-.449.218-.449c-.127 0-.47.288-.762.64m167.951 4.387c.492.345.81.765.706.934-.104.168.073.306.394.306.869 0 .705-.494-.404-1.221-1.268-.831-1.879-.847-.696-.019m-118.134 3.4c-.145.234-.156.534-.024.666s.24.02.24-.25.168-.387.372-.26c.205.126.486.047.624-.176.138-.224-.019-.407-.349-.407-.33 0-.718.192-.863.427M115.95 126.2c-.028.11-.072.365-.1.567-.028.201-.185.501-.35.666-.165.165-.3.463-.3.662s.281.081.626-.263c.344-.344.522-.792.397-.995-.125-.203-.002-.46.275-.571.399-.161.399-.209.002-.234-.275-.018-.522.058-.55.168m51.45 2.2c-.504.217-.578.344-.2.344.33 0 .96-.155 1.4-.344.504-.217.578-.344.2-.344-.33 0-.96.155-1.4.344m133.753 1.478c.248.482.63.988.849 1.123.685.424.435-.196-.451-1.118l-.85-.883.452.878m-43.453.798c.385.1 1.015.1 1.4 0 .385-.101.07-.183-.7-.183s-1.085.082-.7.183m-82.599 2.861c-.605.364-1.1.81-1.1.99-.001.18.539-.057 1.199-.527 1.777-1.266 1.715-1.558-.099-.463m-15.532 10.939c-.285 1.152-.222 1.443.27 1.254.656-.252.73-.778.161-1.13-.22-.136-.414-.192-.431-.124m107.87.262c-.139.223-.057.527.181.674.615.381 1.012-.14.498-.654-.287-.287-.511-.294-.679-.02m-94.772 3.129c-.447.446-.3.8.333.8.33 0 .6-.24.6-.534 0-.567-.492-.708-.933-.266m-25.773 6.329c.161.179-.019.562-.4.852-.382.289-.491.532-.243.539.794.023 1.465-1.071.868-1.416-.285-.164-.387-.153-.225.025m85.423 8.474c.396.16.408.338.051.769-.362.436-.341.561.098.561.31 0 .591-.36.624-.8.039-.518-.177-.789-.615-.768-.442.02-.497.103-.158.238m-97.917 2.954c0 .233.161.324.358.202.197-.122.471.073.61.434.138.36.362.543.498.407.291-.291-.603-1.467-1.115-1.467-.193 0-.351.191-.351.424m-43.2 8.709c0 .257-.281.467-.624.467-.35 0-.504.192-.352.438.184.299.471.239.9-.19.345-.346.504-.753.352-.905-.152-.152-.276-.066-.276.19m79.547 1.168c.234.437.311.907.172 1.046s-.043.253.212.253c.612 0 .34-1.71-.306-1.925-.382-.127-.401.023-.078.626m-8.942.397c.073.386.148 1.208.164 1.826.018.641.203 1.017.431.876.534-.33.514-2.2-.024-2.2-.233 0-.32-.168-.193-.372a.44.44 0 0 0-.141-.602c-.205-.127-.311.086-.237.472m-72.023 2.539c-.009.64.104 1.163.251 1.163.339 0 .353-1.962.016-2.17-.139-.085-.259.368-.267 1.007m56.965 1.064c.234.437.311.907.172 1.046s-.043.253.212.253c.612 0 .34-1.71-.306-1.925-.382-.127-.401.023-.078.626m25.896-.134c.133.348.418.633.633.633.526 0 .197-.909-.401-1.108-.293-.098-.382.085-.232.475m101.606 1.578c.76 1.042 1.351 1.349 1.351.701 0-.195-.473-.664-1.051-1.042l-1.05-.689.75 1.03m-17.017 5.155c-.018.385-.212.7-.432.7s-.4.219-.4.486c0 .314.228.258.646-.161.356-.356.55-.889.432-1.186-.147-.369-.225-.318-.246.161m65.397 2.129c-.148.586-.191 1.143-.097 1.237.095.094.292-.308.439-.895.148-.586.191-1.143.097-1.237-.095-.094-.292.308-.439.895m-90.229.171c0 .22.27.4.6.4.33 0 .6-.18.6-.4 0-.22-.27-.4-.6-.4-.33 0-.6.18-.6.4m-66.4.72c0 .498.904 1.28 1.48 1.28.286 0 .52-.16.52-.356 0-.195-.315-.33-.7-.3-.385.031-.655-.169-.6-.444.055-.275-.08-.5-.3-.5-.22 0-.4.144-.4.32m14.838 3.58c.295.385.564.753.599.817.035.065.174-.17.309-.521.142-.369.078-.535-.151-.393-.217.134-.395.054-.395-.179 0-.233-.202-.424-.449-.424-.299 0-.27.234.087.7m78.496 15.3c0 1.65.071 2.325.157 1.5.087-.825.087-2.175 0-3-.086-.825-.157-.15-.157 1.5m12.272-.929c.012.613.749 1.507 1.02 1.236.148-.148-.022-.56-.378-.917-.357-.356-.645-.499-.642-.319M159.1 216.265c.275.111.5.457.5.768 0 .683.641.748 1.038.105.167-.269.111-.354-.134-.202-.231.143-.523-.01-.65-.338-.126-.329-.46-.584-.741-.566-.402.024-.405.075-.013.233m13.679 5.113c1.141 1.214 1.395 1.295.846.269-.221-.414-.719-.874-1.104-1.022-.523-.201-.458-.009.258.753m104.698 1.165c-.133.347-.058.745.167.884.623.385.875-.085.452-.841-.337-.602-.403-.606-.619-.043m-28.245 2.957c-.018.275-.017.615.002.755.019.141-.201.401-.488.579-.288.177-.424.422-.303.543.121.121.656-.258 1.189-.843.532-.585.758-.943.502-.796a.457.457 0 0 1-.668-.236c-.161-.399-.209-.399-.234-.002m-69.632 1.287c0 .214.3.273.666.132.483-.185.576-.11.338.275-.218.352-.173.434.134.244.73-.451.539-1.038-.338-1.038-.44 0-.8.174-.8.387m64.144 3.879a.437.437 0 0 1-.242.645c-.276.099-.407.284-.29.412.116.129.474.071.796-.128.499-.308.503-.438.03-.878-.328-.305-.448-.326-.294-.051m71.695 14.072c-.139.223-.057.527.181.674.615.381 1.012-.14.498-.654-.287-.287-.511-.294-.679-.02m-95.306 2.348c0 .283.128.514.285.514.156 0 .476-.231.711-.514.32-.387.25-.515-.284-.515-.392 0-.712.232-.712.515m74.516 13.129a3.854 3.854 0 0 0-.215 1.318c.019.367.193.136.387-.513.377-1.262.244-1.887-.172-.805M97.1 270.265c.275.111.5.457.5.768 0 .312.186.567.414.567.281 0 .276-.258-.014-.8-.235-.44-.647-.786-.914-.768-.366.023-.363.081.014.233m60.001 5.272c-.605.364-1.1.81-1.1.99-.001.18.539-.057 1.199-.527 1.777-1.266 1.715-1.558-.099-.463m-13.501 23.33c0 .256.118.348.263.203.145-.145.509-.059.81.19.3.25.662.338.803.197.142-.141.002-.26-.309-.263-.467-.005-.461-.075.033-.394.468-.302.357-.389-.5-.394-.605-.003-1.1.204-1.1.461m115.52 10.776l-.92.802 1-.506c.55-.279 1.225-.461 1.5-.405.688.139.631-.198-.08-.471-.32-.123-.995.138-1.5.58m-15.38 6.831c.118.371 0 .762-.262.869-.263.106-.163.208.222.225.8.037.875-.307.256-1.168-.369-.513-.4-.502-.216.074m-31.089 7.608c.104.168.621.27 1.15.226 1.19-.098.936-.432-.373-.489-.531-.024-.881.095-.777.263" fill="#8cb4a4"/></g></svg>
